<svg width="60" height="60" fill="none" xmlns="http://www.w3.org/2000/svg"><path d="M52.5 27.5c0 13.875-9.6 26.85-22.5 30-12.9-3.15-22.5-16.125-22.5-30v-15L30 2.5l22.5 10v15zM30 52.5c9.375-2.5 17.5-13.65 17.5-24.45v-12.3L30 7.95l-17.5 7.8v12.3C12.5 38.85 20.625 50 30 52.5zm0-30.275c4 0 7.225 3.225 7.225 7.225 0 4-3.225 7.225-7.225 7.225-4 0-7.225-3.25-7.225-7.225 0-3.975 3.25-7.225 7.225-7.225zM30 15l3.45 5c-1.05-.45-2.2-.675-3.45-.675s-2.375.225-3.45.675L30 15zm-12.5 7.225l6-.5c-.85.775-1.65 1.625-2.25 2.675-.625 1.05-1 2.15-1.25 3.3l-2.5-5.475zm0 14.45l2.575-5.425c.2 1.075.6 2.2 1.175 3.25a10.44 10.44 0 002.25 2.7l-6-.525zm25-14.45L40 27.7a11.51 11.51 0 00-1.25-3.3c-.6-1.05-1.375-1.9-2.25-2.7l6 .525zm0 14.45l-6 .5a10.745 10.745 0 002.25-2.675c.6-1.05.975-2.175 1.175-3.25l2.575 5.425zm-12.5 7.2l-3.475-4.95c1.075.375 2.225.625 3.475.625s2.375-.25 3.425-.625L30 43.875z" fill="#FFB703"/></svg>