<svg width="30" height="30" fill="none" xmlns="http://www.w3.org/2000/svg"><path fill-rule="evenodd" clip-rule="evenodd" d="M28.125 3.75a1.875 1.875 0 00-1.875-1.875H3.75A1.875 1.875 0 001.875 3.75v22.5a1.875 1.875 0 001.875 1.875h22.5a1.875 1.875 0 001.875-1.875V3.75zM0 3.75A3.75 3.75 0 013.75 0h22.5A3.75 3.75 0 0130 3.75v22.5A3.75 3.75 0 0126.25 30H3.75A3.75 3.75 0 010 26.25V3.75zm8.438 10.313a.938.938 0 000 1.874h10.861l-4.025 4.024a.936.936 0 000 1.328.936.936 0 001.327 0l5.625-5.625a.936.936 0 000-1.328l-5.625-5.625a.938.938 0 10-1.327 1.328l4.025 4.024H8.438z" fill="#fff"/></svg>