<svg width="62" height="61" fill="none" xmlns="http://www.w3.org/2000/svg"><path d="M60.815 29.448c-.371-.533-1.037-.859-1.755-.859-6.056 0-11.601 2.701-14.758 7.118H19.98c-2.74 0-5.314.925-7.25 2.606L.6 48.837c-.8.694-.8 1.821 0 2.516 4.98 4.321 10.208 8.823 10.26 8.868.8.69 2.092.688 2.891-.002l7.779-6.718h17.18c5.358 0 10.231-2.557 12.715-6.674.062-.103 6.274-10.389 9.45-15.63a1.577 1.577 0 00-.06-1.748zM47.792 45.176c-1.775 2.94-5.254 4.766-9.082 4.766H20.683a2.22 2.22 0 00-1.446.518l-6.934 5.989a4193.627 4193.627 0 01-7.352-6.355L15.63 40.83c1.162-1.008 2.707-1.563 4.35-1.563H42.1l-1.574 2.605c-.355.588-1.05.954-1.816.954H24.785c-1.133 0-2.05.796-2.05 1.779 0 .983.917 1.78 2.05 1.78H38.71c2.295 0 4.384-1.096 5.45-2.86l3.165-5.242c1.717-2.819 4.648-4.842 8.072-5.69C52.125 38 47.844 45.09 47.792 45.176zM41.191 7.118c0-3.925-3.68-7.118-8.203-7.118s-8.203 3.193-8.203 7.118c0 3.925 3.68 7.117 8.203 7.117s8.203-3.192 8.203-7.117zm-8.203 3.559c-2.261 0-4.101-1.597-4.101-3.56 0-1.962 1.84-3.558 4.101-3.558 2.262 0 4.102 1.596 4.102 3.559 0 1.962-1.84 3.559-4.102 3.559z" fill="#219EBC"/><path d="M22.734 28.47h20.508c1.132 0 2.051-.796 2.051-1.779v-1.78c0-5.886-5.52-10.676-12.305-10.676-6.784 0-12.304 4.79-12.304 10.677v1.78c0 .982.918 1.779 2.05 1.779zm10.254-10.676c4.523 0 8.203 3.193 8.203 7.118H24.785c0-3.925 3.68-7.118 8.203-7.118z" fill="#219EBC"/></svg>