<svg width="30" height="30" fill="none" xmlns="http://www.w3.org/2000/svg"><path d="M10.313 3.75A2.813 2.813 0 007.5 6.563v4.687A3.75 3.75 0 003.75 15v8.438a2.812 2.812 0 002.813 2.812h11.25a4.666 4.666 0 01-.844-1.875H6.562a.938.938 0 01-.937-.938V15A1.875 1.875 0 017.5 13.125h9.469c.14-.694.433-1.331.843-1.875H9.376V6.562a.937.937 0 01.938-.937h9.374a.937.937 0 01.938.938v2.906a4.69 4.69 0 01.938-.094h.937V6.562a2.812 2.812 0 00-2.813-2.812h-9.375zm11.25 7.5a2.812 2.812 0 00-2.813 2.813v9.374a2.812 2.812 0 002.813 2.813h1.875a2.812 2.812 0 002.812-2.813v-9.375a2.812 2.812 0 00-2.813-2.812h-1.875zm-.938 2.813a.938.938 0 01.938-.938h1.875a.938.938 0 01.937.938v9.374a.938.938 0 01-.938.938h-1.875a.938.938 0 01-.937-.938v-9.375zm-11.25 1.874a.937.937 0 11-1.875 0 .937.937 0 011.875 0zm-.938 4.688a.938.938 0 100-1.875.938.938 0 000 1.875zm4.688-4.688a.938.938 0 11-1.875 0 .938.938 0 011.875 0zm-.938 4.688a.938.938 0 100-1.875.938.938 0 000 1.875z" fill="#fff"/></svg>