<svg width="50" height="50" fill="none" xmlns="http://www.w3.org/2000/svg"><path d="M22.281 18.619v2.869h-2.1v3.506h2.1v10.423h4.317V24.994h2.896s.273-1.681.404-3.52h-3.283v-2.397c0-.36.47-.841.937-.841h2.35v-3.652h-3.198c-4.529 0-4.423 3.51-4.423 4.035z" fill="#fff"/><path d="M25 41.666a16.667 16.667 0 100-33.333 16.667 16.667 0 000 33.334zm0 4.167C13.494 45.833 4.167 36.506 4.167 25 4.167 13.494 13.494 4.166 25 4.166c11.506 0 20.833 9.328 20.833 20.834S36.506 45.833 25 45.833z" fill="#fff"/></svg>