<svg width="60" height="60" fill="none" xmlns="http://www.w3.org/2000/svg"><path d="M30 26.181l-3.043 9.365h-9.848l7.967 5.788-3.045 9.364L30 44.912l7.967 5.786-3.045-9.364 7.967-5.788H33.04L30 26.181zm2.66 14.175l1.643 5.06L30 42.287l-4.307 3.127 1.646-5.059-4.305-3.127h5.322L30 32.17l1.644 5.059h5.32l-4.303 3.127z" fill="#FFB703"/><path d="M41.866 24.862v-8.155a.975.975 0 00-.451-.806l9.21-14.026H32.967l-2.966 4.45-2.966-4.45H9.375l9.21 14.025a.974.974 0 00-.45.807v8.155c-4.202 3.438-6.885 8.661-6.885 14.513 0 10.355 8.395 18.75 18.75 18.75.64 0 1.27-.033 1.892-.096 9.466-.947 16.858-8.937 16.858-18.654 0-5.852-2.683-11.075-6.884-14.513zm-3.592-22.05h5.933l-8.274 12.412-2.966-4.45 5.307-7.961zm.626 16.861l.912-1.366a.984.984 0 01.077.378v3.956a.932.932 0 01-.279.656A18.629 18.629 0 0030 20.625c-3.387 0-6.71.925-9.61 2.673a.934.934 0 01-.279-.657v-3.956a.98.98 0 01.077-.378l.912 1.367h17.8zM15.793 2.813h5.933l10.616 15.923h-5.933L15.793 2.812zM30 55.313c-8.801 0-15.938-7.136-15.938-15.938S21.2 23.437 30 23.437c8.801 0 15.938 7.136 15.938 15.938S38.8 55.313 30 55.313z" fill="#FFB703"/></svg>