<svg width="15" height="16" fill="none" xmlns="http://www.w3.org/2000/svg"><g clip-path="url(#clip0)"><path fill-rule="evenodd" clip-rule="evenodd" d="M.584 10.35c-.011-.734-.012-.968.044-2.834.056-1.867.071-2.1.126-2.832.055-.73.187-1.227.37-1.66.186-.452.47-.86.83-1.192.353-.34.776-.597 1.24-.756.442-.157.945-.258 1.677-.27.735-.011.97-.012 2.835.044 1.867.056 2.1.071 2.832.126.73.055 1.226.187 1.659.37.453.186.86.47 1.193.829.34.354.597.778.756 1.24.157.443.258.946.27 1.678.011.735.012.969-.044 2.835-.056 1.867-.071 2.1-.126 2.832-.055.73-.187 1.226-.37 1.659a3.38 3.38 0 01-.829 1.193 3.37 3.37 0 01-1.24.756c-.443.157-.946.258-1.678.27-.735.011-.97.012-2.835-.044-1.867-.056-2.1-.071-2.831-.126-.732-.055-1.228-.187-1.66-.37a3.372 3.372 0 01-1.193-.83 3.37 3.37 0 01-.757-1.24c-.156-.442-.257-.945-.269-1.677zM1.99 4.777c-.055.724-.069.941-.124 2.776-.055 1.835-.054 2.052-.043 2.778.01.671.111 1.038.198 1.283.116.325.257.558.49.806.215.235.48.418.775.537.24.102.6.225 1.27.275.723.055.94.069 2.775.124 1.835.055 2.052.054 2.778.043.671-.01 1.038-.111 1.283-.198a2.13 2.13 0 00.806-.49 2.13 2.13 0 00.537-.775c.102-.24.225-.6.275-1.27.055-.723.069-.94.124-2.775.055-1.835.054-2.052.043-2.778-.01-.671-.111-1.038-.198-1.283a2.135 2.135 0 00-.49-.806 2.133 2.133 0 00-.775-.537c-.24-.102-.6-.225-1.27-.275-.723-.055-.94-.069-2.775-.124-1.835-.055-2.052-.054-2.778-.043-.671.01-1.038.111-1.283.198a2.135 2.135 0 00-.806.49 2.13 2.13 0 00-.537.775c-.102.24-.225.6-.275 1.27zm7.602 3.886a2.293 2.293 0 10-4.227-1.778 2.294 2.294 0 004.227 1.778zm-4.665 1.482A3.533 3.533 0 1110.071 5.3a3.533 3.533 0 01-5.144 4.845zm-.304-6.829a.835.835 0 10-1.249 1.11.835.835 0 001.25-1.11z" fill="#fff"/></g><defs><clipPath id="clip0"><path fill="#fff" transform="rotate(-90 7.61 7.61)" d="M0 0h15v15H0z"/></clipPath></defs></svg>