<svg width="70" height="61" fill="none" xmlns="http://www.w3.org/2000/svg"><path d="M68.975 58.958H45.59V50.53a7.8 7.8 0 001.843.22h15.72c3.775 0 6.846-2.664 6.846-5.94 0-.49-.46-.89-1.025-.89h-2.83L58.09 30.972c.814-.653 1.325-1.587 1.325-2.622 0-1.664-1.318-3.066-3.096-3.462V10.564h2.545v.497c0 1.15 2.051 1.15 2.051 0v-.498h5.059c3.53 0 3.535-4.771 0-4.771h-5.059v-.895c0-1.15-2.05-1.15-2.05 0v.895h-2.547v-.895c0-1.15-2.05-1.15-2.05 0v.895h-8.471V3.925c0-1.75-1.641-3.174-3.658-3.174-.836 0-1.606.245-2.223.656C39.26.56 38.144 0 36.88 0s-2.38.56-3.038 1.408A4.007 4.007 0 0031.618.75c-1.375 0-2.575.662-3.2 1.638a4.034 4.034 0 00-2.061-.554c-2.017 0-3.657 1.423-3.657 3.173v.784h-6.97v-.895c0-1.15-2.05-1.15-2.05 0v.895h-2.546v-.895c0-1.15-2.051-1.15-2.051 0v.895H4.025c-3.53 0-3.535 4.772 0 4.772h5.059v.497c0 1.15 2.05 1.15 2.05 0v-.497h2.546v14.325c-1.778.396-3.096 1.798-3.096 3.462 0 1.035.511 1.969 1.325 2.622l-8.055 12.95H1.025c-.566 0-1.025.398-1.025.89 0 3.275 3.07 5.94 6.845 5.94h15.721a7.8 7.8 0 001.843-.221v8.427H1.024c-.566 0-1.025.398-1.025.89 0 .491.46.89 1.025.89h67.95c.566 0 1.025-.399 1.025-.89 0-.492-.46-.89-1.025-.89zm-5.16-15.036h-2.062c-.566 0-1.025.398-1.025.89 0 .49.459.89 1.025.89h6.086c-.471 1.867-2.393 3.27-4.684 3.27H47.433c-2.292 0-4.214-1.403-4.684-3.27h13.545v-1.78h-9.522L54.3 31.819c.662.14 1.324.14 1.985 0l7.53 12.103zM26.46 31.935h17.08v4.104H26.46v-4.104zm30.905-3.584c0 .99-.929 1.794-2.07 1.794-1.143 0-2.072-.805-2.072-1.794 0-.99.93-1.795 2.071-1.795 1.142 0 2.071.805 2.071 1.795zm-3.096-3.462c-1.779.396-3.097 1.798-3.097 3.462 0 1.035.511 1.969 1.326 2.622l-6.906 11.102v-11.03c0-.49-.46-.89-1.026-.89h-.9c-.087-1.762.565-3.471 2.019-4.73 3.25-2.817 5.976-5.656 5.976-9.889v-3.585a2.81 2.81 0 00-.37-1.387h2.978v14.325zM65.975 7.57c.903 0 .903 1.213 0 1.213h-5.059V7.571h5.059zm-7.11 0v1.213H56.32V7.571h2.546zm-4.596 0v1.213l-8.471-.004V7.571h8.47zM42.14 2.531c.886 0 1.607.625 1.607 1.394V8.78h-3.21v-4.9c.027-.748.735-1.35 1.603-1.35zm-5.26-.752c.885 0 1.606.625 1.606 1.392l-.003 5.646c-.85.156-1.49.812-1.49 1.595 0 .849.262 1.645.717 2.333-1.052.552-2.437-.124-2.437-1.19V3.17c0-.767.72-1.392 1.606-1.392zm-5.262.752c.869 0 1.576.601 1.604 1.349v7.086c-.028.748-.736 1.35-1.604 1.35-.886 0-1.606-.626-1.606-1.394V3.925c0-.769.72-1.394 1.606-1.394zM24.75 5.008c0-.769.721-1.394 1.607-1.394.868 0 1.576.602 1.604 1.35v4.919c-.028.748-.736 1.35-1.604 1.35-.886 0-1.607-.626-1.607-1.395v-4.83zM22.7 7.571v1.213h-6.97V7.571h6.97zM4.025 8.784c-.903 0-.903-1.213 0-1.213h5.059v1.213H4.025zm7.11 0V7.571h2.546v1.213h-2.546zm11.565 1.78v4.156c0 .491.459.89 1.025.89.566 0 1.025-.399 1.025-.89v-2.032c.485.207 1.03.324 1.607.324a4.03 4.03 0 002.062-.555c.624.976 1.824 1.638 3.199 1.638.865 0 1.66-.262 2.286-.7.664.805 1.75 1.33 2.975 1.33.792 0 1.553-.221 2.178-.623a5.946 5.946 0 003.37 1.02h1.64v.019c-4.474.442-7.962 3.744-7.962 7.739 0 .49.46.89 1.026.89.566 0 1.025-.4 1.025-.89 0-3.314 3.112-6.01 6.936-6.01.567 0 1.026-.398 1.026-.89v-1.748c0-.492-.46-.89-1.026-.89h-2.666c-1.808 0-3.289-1.235-3.378-2.782 3.014 0 6.028.003 9.041.003.846.04 1.521.646 1.521 1.388v3.585c0 3.748-2.523 6.158-5.374 8.63-1.86 1.611-2.645 3.748-2.62 5.99H28.303c.076-1.984-.688-3.824-1.943-5.463-1.053-1.422-1.61-3.066-1.61-4.756 0-.491-.459-.89-1.025-.89-.567 0-1.026.399-1.026.89 0 2.034.671 4.013 1.94 5.724 1.02 1.37 1.692 2.843 1.614 4.495h-.82c-.565 0-1.024.398-1.024.89v11.03l-6.907-11.103c.815-.653 1.326-1.587 1.326-2.622 0-1.664-1.318-3.066-3.097-3.462V10.564H22.7zm-7.994 15.992c1.142 0 2.071.805 2.071 1.795 0 .99-.929 1.794-2.071 1.794-1.142 0-2.071-.805-2.071-1.794 0-.99.929-1.795 2.07-1.795zm-.993 5.263c.662.14 1.324.14 1.985 0l7.529 12.103H6.185l7.528-12.103zM6.845 48.972c-2.292 0-4.213-1.403-4.684-3.27H27.25c-.47 1.867-2.392 3.27-4.684 3.27H6.846zm19.614 9.986v-9.265c1.783-1.073 2.953-2.86 2.953-4.881 0-.492-.46-.89-1.026-.89H26.46v-6.104h17.082v6.104h-1.927c-.566 0-1.025.398-1.025.89 0 2.02 1.17 3.808 2.952 4.881v9.265H26.46z" fill="#219EBC"/></svg>