<svg width="16" height="16" fill="none" xmlns="http://www.w3.org/2000/svg"><g clip-path="url(#clip0)"><path fill-rule="evenodd" clip-rule="evenodd" d="M1.466 1.792A1.149 1.149 0 012.648.678l11.446.344a1.148 1.148 0 011.115 1.182l-.343 11.446a1.148 1.148 0 01-1.184 1.115l-11.446-.343a1.15 1.15 0 01-1.114-1.184l.344-11.446zm5.317 4.255l1.86.056-.027.934c.285-.529.986-.992 2.019-.96 1.98.059 2.417 1.143 2.358 3.106l-.11 3.637-2.003-.06.096-3.19c.033-1.118-.216-1.757-.899-1.777-.946-.029-1.36.64-1.392 1.709l-.096 3.19-2.004-.06.198-6.585zm-3.631 6.396l2.004.06.198-6.585-2.005-.06-.197 6.584zm2.553-8.664a1.29 1.29 0 11-2.58-.021 1.29 1.29 0 012.58.02z" fill="#fff"/></g><defs><clipPath id="clip0"><path fill="#fff" transform="rotate(1.719 .447 29.778)" d="M0 0h15v15H0z"/></clipPath></defs></svg>