<svg width="50" height="50" fill="none" xmlns="http://www.w3.org/2000/svg"><path d="M35.417 27.354v7.702h-4.465V27.87c0-1.804-.646-3.036-2.263-3.036-1.233 0-1.968.83-2.291 1.634-.117.287-.148.687-.148 1.087v7.502h-4.467s.06-12.17 0-13.431h4.467v1.902l-.03.044h.03v-.042c.594-.916 1.652-2.22 4.025-2.22 2.937 0 5.142 1.92 5.142 6.045zM17.11 15.148c-1.527 0-2.527 1.004-2.527 2.32 0 1.293.971 2.324 2.469 2.324h.03c1.558 0 2.526-1.034 2.526-2.323-.029-1.317-.968-2.321-2.498-2.321zm-2.262 19.908h4.466V21.625h-4.466v13.431z" fill="#fff"/><path d="M25 41.666a16.667 16.667 0 100-33.333 16.667 16.667 0 000 33.334zm0 4.167C13.494 45.833 4.167 36.506 4.167 25 4.167 13.494 13.494 4.166 25 4.166c11.506 0 20.833 9.328 20.833 20.834S36.506 45.833 25 45.833z" fill="#fff"/></svg>