<svg width="50" height="50" fill="none" xmlns="http://www.w3.org/2000/svg"><path d="M24.02 29.158c-1.603-.169-3.047-.567-4.285-1.542-.154-.12-.312-.237-.452-.375-.541-.52-.598-1.122-.166-1.74.364-.528.979-.67 1.62-.368.124.061.243.132.355.213 2.306 1.595 5.475 1.64 7.791.07.223-.181.48-.316.757-.396a1.188 1.188 0 011.364.55c.34.557.333 1.099-.083 1.53a6.287 6.287 0 01-2.265 1.475c-.808.316-1.696.475-2.573.581.134.146.196.217.28.3 1.189 1.204 2.385 2.404 3.572 3.613.405.412.49.922.267 1.401-.244.521-.79.867-1.323.83a1.286 1.286 0 01-.837-.431c-.898-.911-1.813-1.805-2.694-2.732-.256-.27-.381-.218-.606.015-.905.937-1.823 1.86-2.748 2.779-.415.41-.909.485-1.39.25a1.417 1.417 0 01-.812-1.304c.027-.338.183-.651.437-.875l3.53-3.56c.076-.08.15-.163.262-.284z" fill="#fff"/><path d="M24.975 25a5.215 5.215 0 01-5.169-5.22 5.221 5.221 0 015.231-5.197 5.216 5.216 0 015.186 5.275c-.015 2.846-2.369 5.153-5.248 5.142zm2.591-5.212a2.539 2.539 0 00-2.55-2.544 2.542 2.542 0 00-2.554 2.573 2.537 2.537 0 002.569 2.525 2.533 2.533 0 002.536-2.554z" fill="#fff"/><path d="M25 41.666a16.667 16.667 0 100-33.333 16.667 16.667 0 000 33.334zm0 4.167C13.494 45.833 4.167 36.506 4.167 25 4.167 13.494 13.494 4.166 25 4.166c11.506 0 20.833 9.328 20.833 20.834S36.506 45.833 25 45.833z" fill="#fff"/></svg>