<svg width="70" height="61" fill="none" xmlns="http://www.w3.org/2000/svg"><path d="M63.821 44.623V32.394c0-5.947-4.593-10.98-10.862-12.572-.228-1.372-.849-2.676-1.805-3.785.998-2.71.19-5.67-2.165-7.713a8.71 8.71 0 00-1.308-.936C45.59 2.953 40.553 0 35 0c-5.553 0-10.59 2.953-12.681 7.388a8.697 8.697 0 00-1.308.936c-2.355 2.043-3.163 5.003-2.165 7.713-.956 1.109-1.577 2.413-1.805 3.785-6.27 1.591-10.862 6.625-10.862 12.572v6.749c0 1.88.854 3.59 2.241 4.857C3.626 44.823 0 48.498 0 52.896v6.655c0 .655.612 1.186 1.367 1.186h41.208c.755 0 1.367-.53 1.367-1.186 0-.655-.612-1.186-1.367-1.186H30.188v-5.47c0-3.692 3.463-6.696 7.719-6.696h5.825c.517 1.98 2.56 3.463 4.995 3.463 2.436 0 4.478-1.483 4.995-3.463h5.826c4.255 0 7.718 3.004 7.718 6.697v5.469H54.879c-.755 0-1.367.53-1.367 1.186 0 .655.612 1.186 1.367 1.186h13.754c.755 0 1.367-.53 1.367-1.186v-6.655c0-3.68-2.54-6.853-6.179-8.273zM21.417 17.055c.356-.344.45-.835.24-1.26-.98-1.99-.475-4.264 1.287-5.794a6.063 6.063 0 011.187-.802c.268-.139.474-.353.582-.608C26.295 4.871 30.429 2.373 35 2.373c4.571 0 8.705 2.499 10.287 6.218.108.255.314.47.582.608.431.223.83.493 1.187.802 1.762 1.53 2.268 3.804 1.287 5.794-.21.425-.116.916.24 1.26a5.733 5.733 0 011.467 2.293 17.52 17.52 0 00-1.323-.051 16.97 16.97 0 00-6.198 1.156c.823-1.164 1.299-2.532 1.299-3.995v-3.63c0-.656-.612-1.187-1.367-1.187h-4.555c-1.929 0-3.497-1.361-3.497-3.034 0-.655-.612-1.186-1.367-1.186-.756 0-1.368.53-1.368 1.186 0 .78.193 1.521.538 2.192-.556.529-1.348.842-2.194.842H27.54c-.755 0-1.367.531-1.367 1.186v3.631c0 1.463.476 2.831 1.3 3.995a16.968 16.968 0 00-6.2-1.156c-.445 0-.886.018-1.322.05a5.733 5.733 0 011.467-2.292zm8.601-3.041c1.445 0 2.81-.476 3.846-1.297 1.089.807 2.5 1.297 4.041 1.297h3.188v2.444c0 2.916-2.733 5.287-6.093 5.287s-6.093-2.372-6.093-5.287v-2.444h1.111zM35 24.118c.793 0 1.56-.093 2.292-.263A13.077 13.077 0 0035 26.95a13.08 13.08 0 00-2.292-3.095c.731.17 1.5.263 2.292.263zM8.913 32.394c0-5.913 5.545-10.724 12.36-10.724 6.815 0 12.36 4.81 12.36 10.724v6.75c0 2.582-2.422 4.683-5.398 4.683h-1.84V42.12c2.271-1.397 3.757-3.693 3.757-6.286v-3.656c0-.655-.612-1.187-1.367-1.187h-4.587c-1.946 0-3.53-1.373-3.53-3.062 0-.655-.612-1.187-1.367-1.187s-1.367.532-1.367 1.187c0 .786.195 1.533.542 2.208-.56.537-1.363.855-2.219.855h-2.496c-.755 0-1.367.53-1.367 1.186v3.656c0 2.593 1.486 4.89 3.756 6.286v1.706h-1.839c-2.976 0-5.398-2.101-5.398-4.684v-6.749zm6.216.97h1.128c1.456 0 2.83-.48 3.872-1.307 1.095.814 2.517 1.308 4.07 1.308h3.218v2.47c0 2.94-2.756 5.33-6.144 5.33-3.388 0-6.144-2.39-6.144-5.33v-2.47zm3.755 9.889a10.12 10.12 0 004.777 0v1.964c0 1.142-1.071 2.072-2.388 2.072s-2.389-.93-2.389-2.072v-1.964zm8.57 9.643v5.469H2.734v-5.47c0-3.692 3.463-6.696 7.719-6.696h5.825c.517 1.98 2.56 3.463 4.995 3.463 2.436 0 4.478-1.483 4.995-3.463h4.598c-2.095 1.66-3.412 4.047-3.412 6.697zm15.129-19.531h3.219c1.552 0 2.973-.494 4.069-1.308 1.042.828 2.416 1.308 3.872 1.308h1.128v2.47c0 2.94-2.756 5.33-6.144 5.33-3.388 0-6.144-2.39-6.144-5.33v-2.47zm6.144 13.924c-1.317 0-2.388-.93-2.388-2.072v-1.964a10.12 10.12 0 004.777 0v1.964c0 1.142-1.072 2.072-2.389 2.072zm5.123-3.462V42.12c2.27-1.397 3.756-3.693 3.756-6.287V32.18c0-.656-.612-1.187-1.367-1.187h-2.496c-.856 0-1.658-.318-2.22-.854a4.805 4.805 0 00.543-2.209c0-.655-.612-1.186-1.367-1.186s-1.367.531-1.367 1.186c0 1.69-1.584 3.063-3.53 3.063h-4.587c-.755 0-1.367.531-1.367 1.186v3.656c0 2.593 1.486 4.89 3.756 6.286v1.706h-7.237V32.394c0-5.914 5.545-10.725 12.36-10.725 6.815 0 12.36 4.811 12.36 10.725v11.432H53.85z" fill="#219EBC"/><path d="M48.727 58.365c-.36 0-.713.127-.967.347-.254.221-.4.527-.4.84 0 .311.146.617.4.838.254.22.607.347.967.347s.712-.127.966-.347c.256-.22.4-.527.4-.839 0-.312-.144-.618-.4-.839a1.489 1.489 0 00-.966-.347z" fill="#219EBC"/></svg>