<svg width="30" height="30" fill="none" xmlns="http://www.w3.org/2000/svg"><path fill-rule="evenodd" clip-rule="evenodd" d="M23.527 17.49a2.94 2.94 0 00-1.114-.22 2.254 2.254 0 00-1.04.19 5.183 5.183 0 00-.807.484 4.047 4.047 0 00-.673.615c-.195.225-.384.431-.57.617a4.49 4.49 0 01-.544.468 1.001 1.001 0 01-1.303-.118 59.524 59.524 0 01-.615-.585 119.78 119.78 0 00-.966-.924 127.81 127.81 0 01-1.186-1.142l-1.275-1.245a48.498 48.498 0 01-2.27-2.374 9.992 9.992 0 01-.732-.907c-.177-.253-.265-.439-.265-.557a.863.863 0 01.19-.585c.137-.176.3-.356.484-.544.187-.184.391-.38.615-.585.225-.206.43-.425.616-.66.184-.234.342-.502.47-.806.125-.3.188-.643.188-1.024 0-.774-.305-1.516-.849-2.066a14.26 14.26 0 01-.995-1.084 12.163 12.163 0 00-1.157-1.2c-.4-.366-.838-.69-1.305-.967a2.738 2.738 0 00-1.407-.396c-.773 0-1.514.306-2.064.85-.508.507-.953.961-1.333 1.363-.365.38-.69.797-.968 1.244a4.974 4.974 0 00-.585 1.435 8.231 8.231 0 00-.19 1.905c0 1.035.166 2.11.498 3.223a19.46 19.46 0 001.346 3.324 21.86 21.86 0 002.066 3.254 31.294 31.294 0 002.637 3.031 28.687 28.687 0 003.018 2.652 23.19 23.19 0 003.267 2.094 18.285 18.285 0 003.354 1.376c1.064.324 2.17.492 3.281.499.636 0 1.27-.07 1.89-.206a4.856 4.856 0 001.45-.585 7.415 7.415 0 001.245-.966c.4-.382.849-.821 1.348-1.32a2.94 2.94 0 00.85-2.066 3.767 3.767 0 00-.192-.966 3.137 3.137 0 00-.482-.907 13.558 13.558 0 00-.69-.835 10.075 10.075 0 00-.79-.79c-.267-.241-.536-.48-.806-.719a15.53 15.53 0 01-.688-.645 2.841 2.841 0 00-.952-.63zm-.688 8.599c-.49.117-.992.172-1.495.161a10.366 10.366 0 01-2.842-.454 15.688 15.688 0 01-2.974-1.245 24.762 24.762 0 01-5.713-4.307 32.156 32.156 0 01-2.417-2.739 19.688 19.688 0 01-1.931-2.959 17.098 17.098 0 01-1.262-3.018 9.952 9.952 0 01-.454-2.9c0-.498.059-.996.176-1.48a3.57 3.57 0 01.484-1.097 5.71 5.71 0 01.79-.938c.313-.304.669-.656 1.068-1.056a1.016 1.016 0 01.75-.307c.117-.01.296.067.54.234.244.167.508.366.792.6.61.51 1.175 1.075 1.685 1.686.235.281.43.542.585.776.156.235.234.415.234.542a.805.805 0 01-.189.585c-.137.158-.3.338-.484.544-.187.204-.392.4-.615.585a3.634 3.634 0 00-.617.658 4.25 4.25 0 00-.468.821 2.53 2.53 0 00-.19 1.013c.01.4.088.774.235 1.125.146.352.356.665.63.937l6.986 6.988a2.863 2.863 0 002.066.863 2.26 2.26 0 001.026-.188 4.527 4.527 0 001.48-1.098c.206-.225.393-.432.571-.617.174-.184.356-.341.542-.469a1.02 1.02 0 01.585-.19c.137 0 .322.08.557.235a8 8 0 01.776.6c.283.244.576.514.88.806.301.293.571.585.806.88.232.292.43.556.585.79.155.235.234.413.234.543a.999.999 0 01-.307.731c-.42.41-.777.769-1.07 1.069a5.91 5.91 0 01-.937.791 3.616 3.616 0 01-1.098.499zm5.287-22.894l-8.7 8.715h6.165v1.875h-9.375V4.41h1.875v6.165l8.717-8.7 1.318 1.318v.002z" fill="#fff"/></svg>