<svg width="30" height="30" fill="none" xmlns="http://www.w3.org/2000/svg"><path d="M20.712 27.5a2.501 2.501 0 001.788-.737l3.387-3.388a1.25 1.25 0 000-1.762l-5-5a1.25 1.25 0 00-1.762 0l-2 1.987a9.438 9.438 0 01-3.75-1.987 9.527 9.527 0 01-1.988-3.75l1.988-2a1.25 1.25 0 000-1.763l-5-5a1.25 1.25 0 00-1.762 0L3.238 7.5A2.5 2.5 0 002.5 9.288a19.1 19.1 0 005.375 12.837A19.1 19.1 0 0020.712 27.5zM7.5 6.763L10.738 10l-1.613 1.613a1.25 1.25 0 00-.375 1.137 12.65 12.65 0 002.875 5.625 12.6 12.6 0 005.625 2.875 1.251 1.251 0 001.137-.337L20 19.263l3.238 3.237-2.5 2.5A16.6 16.6 0 019.65 20.363 16.6 16.6 0 015 9.263l2.5-2.5zM25 13.75h2.5A11.01 11.01 0 0016.25 2.5V5A8.462 8.462 0 0125 13.75z" fill="#fff"/><path d="M16.25 10c2.625 0 3.75 1.125 3.75 3.75h2.5c0-4.025-2.225-6.25-6.25-6.25V10z" fill="#fff"/></svg>