<svg width="71" height="61" fill="none" xmlns="http://www.w3.org/2000/svg"><path d="M1.72 37.854c.383.232.789.435 1.212.607.504.224 1.348.599 1.408.86a1.55 1.55 0 01-.138 1.026c-.174.324-.356.603-.513.843-.427.654-1.142 1.752-.064 2.516.252.203.687.495 1.084.76a2.28 2.28 0 00-.38 1.46c.062.4.313.761.692.995.26.16.536.297.809.431.69.342.959.5 1.05.817.064.408.025.823-.117 1.215-.069.27-.135.542-.175.81a5.287 5.287 0 00.384 2.727c.524 1.608 2.2 2.729 4.126 2.758.322 0 .642-.03.957-.088a98.894 98.894 0 009.836-2.554c2.629 1.339 4.289 5.408 4.722 6.936.129.451.596.768 1.133.768l29.283-.07c.37-.002.72-.155.939-.415a.904.904 0 00.171-.902 7.539 7.539 0 00-1.181-1.923 9.296 9.296 0 01-.755-1.095 17.727 17.727 0 01-1.317-2.88 30.22 30.22 0 01-1.37-5.921c-.038-.368-.304-.69-.695-.837-.39-.148-.842-.1-1.18.126-.337.225-.505.593-.44.958.27 2.125.757 4.225 1.455 6.276a19.657 19.657 0 001.448 3.168c.266.459.568.9.904 1.323l.078.102-26.458.065c-.775-2.401-2.18-4.614-4.107-6.464l1.05-.319c.781-.237 1.37-.415 1.673-.5 4.998-1.37 7.497-3.346 7.43-5.87a.928.928 0 00-.35-.715 1.24 1.24 0 00-.838-.273c-.644.013-1.154.476-1.14 1.035.029 1.042-.955 2.561-5.804 3.892-.317.089-.926.273-1.734.518-.867.263-1.97.597-3.185.955h-.008a101.391 101.391 0 01-10.034 2.632c-1.088.182-2.147-.413-2.4-1.35a3.536 3.536 0 01-.275-1.805c.03-.213.087-.423.14-.635.238-.7.273-1.44.102-2.155-.34-.928-1.129-1.683-2.16-2.069l-.242-.12c.125-.221.276-.43.449-.626a.918.918 0 00.24-.762.997.997 0 00-.463-.68 45.84 45.84 0 01-1.423-.945c.056-.088.116-.185.175-.273.183-.279.392-.603.596-.977.369-.71.478-1.5.311-2.266-.28-1.235-1.642-1.84-2.638-2.282a6.933 6.933 0 01-.959-.482 4.891 4.891 0 01-.7-.494c0-.153.19-.524 1.078-1.464a40.23 40.23 0 005.34-7.526c.276-.418.43-.888.452-1.37-.12-1.017-.742-1.94-1.705-2.53-.472-.375-.917-.73-.968-1.057.008-.24.07-.476.182-.695.19-.434.41-.86.63-1.286.478-.856.86-1.75 1.14-2.67l.118-.43a22.71 22.71 0 01.954-2.989c.92-2.202 2.343-4.22 4.186-5.933 2.232-2.049 5.744-3.498 10.458-4.311a86.712 86.712 0 0110.945-1.369 28.622 28.622 0 015.492.27c.627.082 1.214-.286 1.322-.827.109-.542-.301-1.06-.923-1.167a31.167 31.167 0 00-6.012-.297A89.042 89.042 0 0023.738 1.44c-5.26.91-9.084 2.511-11.694 4.904-2.058 1.912-3.65 4.165-4.679 6.624A24.677 24.677 0 006.331 16.2l-.116.427a12.17 12.17 0 01-.998 2.306c-.233.462-.476.923-.685 1.401a2.992 2.992 0 00-.309 1.694c.236.906.84 1.709 1.701 2.26.57.455.945.775.95 1.053-.042.154-.11.302-.2.44a38.582 38.582 0 01-5.11 7.205c-.843.892-1.726 1.931-1.538 2.971.247.804.857 1.489 1.694 1.897z" fill="#219EBC"/><path d="M13.03 18.015l.117-.45a20.23 20.23 0 01.778-2.488c.703-1.69 1.792-3.24 3.202-4.556 1.512-1.237 3.362-2.119 5.377-2.562.406-.1.72-.382.818-.738.098-.357-.033-.732-.344-.98a1.301 1.301 0 00-1.153-.218c-2.404.542-4.607 1.612-6.395 3.108-1.624 1.516-2.88 3.3-3.69 5.247a21.63 21.63 0 00-.864 2.742l-.117.439c-.146.544.244 1.088.871 1.214.087.018.176.027.265.027.543 0 1.013-.326 1.136-.785zm-2.528 4.259c.644 0 1.167-.454 1.167-1.013 0-.559-.523-1.012-1.167-1.012s-1.167.453-1.167 1.012c0 .56.523 1.013 1.167 1.013zm21-1.812c-.08 3.451 1.326 6.804 3.942 9.404.824.742 1.722 1.42 2.684 2.025 1.707 1.145 3.324 2.239 3.753 3.761-1.333.458-2.21 1.575-2.212 2.819v2.024c.006 1.282.94 2.423 2.333 2.85v.187c0 2.236 2.09 4.05 4.667 4.05s4.667-1.814 4.667-4.05v-.186c1.393-.428 2.327-1.569 2.333-2.85V38.47c-.003-1.244-.882-2.361-2.217-2.818.428-1.518 2.047-2.617 3.753-3.761a19.58 19.58 0 002.684-2.025c2.617-2.6 4.024-5.953 3.947-9.404C61.803 13.17 55.07 7.235 46.669 7.09c-8.401.145-15.134 6.08-15.167 13.372zm11.667 1.812h-1.167c-.644 0-1.166-.453-1.166-1.012 0-.56.522-1.013 1.166-1.013.645 0 1.167.454 1.167 1.013v1.012zm4.667 13.16h-2.334V24.299h2.334v11.135zm-1.167 10.123c-1.289 0-2.333-.907-2.333-2.025h4.666c0 1.118-1.044 2.025-2.333 2.025zm4.667-5.062c0 .56-.523 1.012-1.167 1.012h-7c-.644 0-1.167-.453-1.167-1.012v-2.024c0-.56.523-1.013 1.167-1.013h7c.644 0 1.167.453 1.167 1.013v2.024zm8.166-20.002c.073 2.94-1.118 5.797-3.34 8.017a17.782 17.782 0 01-2.376 1.778 15.591 15.591 0 00-3.617 2.995v-8.985h1.167c1.933 0 3.5-1.36 3.5-3.036 0-1.678-1.567-3.037-3.5-3.037s-3.5 1.36-3.5 3.037v1.012h-2.334v-1.012c0-1.678-1.567-3.037-3.5-3.037s-3.5 1.36-3.5 3.037c0 1.677 1.567 3.037 3.5 3.037h1.167v8.984a15.568 15.568 0 00-3.61-2.994 17.809 17.809 0 01-2.379-1.78c-2.224-2.218-3.416-5.076-3.344-8.016.116-6.169 5.987-11.379 12.833-11.379s12.722 5.21 12.833 11.38zm-9.333 1.78v-1.011c0-.56.522-1.013 1.167-1.013.644 0 1.166.454 1.166 1.013 0 .559-.522 1.012-1.166 1.012h-1.167zm15.167-1.011h3.5c.644 0 1.166-.454 1.166-1.013 0-.559-.522-1.012-1.166-1.012h-3.5c-.645 0-1.167.453-1.167 1.012 0 .56.522 1.013 1.167 1.013zM59.867 9.81c.31 0 .607-.107.826-.297l2.475-2.148c.303-.254.425-.63.318-.985-.107-.354-.425-.63-.833-.723a1.288 1.288 0 00-1.135.276l-2.476 2.148c-.334.289-.434.725-.254 1.103.181.38.607.626 1.08.626zM46.669 5.065c.644 0 1.166-.453 1.166-1.012V1.016c0-.56-.522-1.013-1.166-1.013-.645 0-1.167.454-1.167 1.013v3.037c0 .559.522 1.012 1.167 1.012zM34.295 9.513a.95.95 0 00.342-.716.95.95 0 00-.342-.717l-2.476-2.147a1.288 1.288 0 00-1.134-.276c-.408.093-.727.37-.833.723-.107.354.014.73.318.985l2.474 2.148c.219.19.516.297.826.297.31 0 .606-.107.825-.297zm-9.793 9.724c-.644 0-1.167.453-1.167 1.012 0 .56.523 1.013 1.167 1.013h3.5c.645 0 1.167-.454 1.167-1.013 0-.559-.523-1.012-1.167-1.012h-3.5z" fill="#219EBC"/></svg>