<svg width="60" height="60" fill="none" xmlns="http://www.w3.org/2000/svg"><path d="M17.68 24.532l-5.144 5.145a11.25 11.25 0 1015.91 15.912l6.856-6.859a11.25 11.25 0 00-3.105-18.105l-2.198 2.198a3.759 3.759 0 00-.577.746 7.501 7.501 0 013.229 12.514l-6.852 6.855a7.504 7.504 0 11-10.612-10.613l2.974-2.97a15.066 15.066 0 01-.48-4.826v.003z" fill="#FFB703"/><path d="M24.697 17.52a11.25 11.25 0 003.105 18.105l2.906-2.91a7.5 7.5 0 01-3.36-12.548l6.851-6.855a7.504 7.504 0 1110.613 10.613l-2.974 2.97c.42 1.575.581 3.206.48 4.826l5.145-5.145a11.251 11.251 0 00-15.911-15.911l-6.855 6.855z" fill="#FFB703"/></svg>