<svg width="17" height="16" fill="none" xmlns="http://www.w3.org/2000/svg"><g clip-path="url(#clip0)"><path d="M16.015 3.528a5.83 5.83 0 01-1.685.407 2.919 2.919 0 001.328-1.572 5.813 5.813 0 01-1.87.65A2.912 2.912 0 008.75 5.52a8.268 8.268 0 01-5.907-3.221 2.91 2.91 0 00-.135 2.835c.213.43.528.8.919 1.077a2.904 2.904 0 01-1.307-.403l-.001.037A2.913 2.913 0 004.568 8.77a2.932 2.932 0 01-1.316.01 2.913 2.913 0 002.658 2.102 5.842 5.842 0 01-4.346 1.077A8.234 8.234 0 005.985 13.4c5.354.16 8.414-4.186 8.53-8.031.003-.125.004-.252.002-.377a5.92 5.92 0 001.497-1.462v-.001z" fill="#fff"/></g><defs><clipPath id="clip0"><path fill="#fff" transform="rotate(1.719 .668 44.554)" d="M0 0h15v15H0z"/></clipPath></defs></svg>