<svg width="29" height="31" fill="none" xmlns="http://www.w3.org/2000/svg"><path d="M19.952 5.891a10.203 10.203 0 016.377 9.467 10.201 10.201 0 01-6.377 9.466v2.13a12.195 12.195 0 008.381-11.596c0-5.409-3.512-10-8.38-11.602V5.89zm0 5.028a5.826 5.826 0 012.042 4.44 5.82 5.82 0 01-2.042 4.439v2.167a7.624 7.624 0 003.81-6.606 7.626 7.626 0 00-3.81-6.606v2.166zM2.428 21.46h6.096l6.857 8.393c.762 1.097 2.544 1.014 3.047-.23V1.155C17.81-.087 16.19-.187 15.381.866l-6.857 8.42H2.428c-1.95 0-2.285.352-2.285 2.259v7.628c0 1.86.38 2.287 2.285 2.287z" fill="#FFB703"/></svg>