<svg width="50" height="50" fill="none" xmlns="http://www.w3.org/2000/svg"><path d="M25 41.666a16.667 16.667 0 100-33.333 16.667 16.667 0 000 33.334zm0 4.167C13.494 45.833 4.167 36.506 4.167 25 4.167 13.494 13.494 4.166 25 4.166c11.506 0 20.833 9.328 20.833 20.834S36.506 45.833 25 45.833z" fill="#fff"/><path d="M31.09 17.762H18.91c-2.39 0-4.327 1.917-4.327 4.28v6.02c0 2.365 1.938 4.28 4.327 4.28h12.18c2.39 0 4.327-1.917 4.327-4.28v-6.02c0-2.365-1.938-4.28-4.328-4.28zm-2.925 7.584l-5.698 2.687a.23.23 0 01-.327-.206v-5.542a.23.23 0 01.333-.202l5.696 2.854a.23.23 0 01-.005.409z" fill="#fff"/></svg>