<svg width="60" height="60" viewBox="0 0 60 60" fill="none" xmlns="http://www.w3.org/2000/svg">
<path d="M52.5 27.5C52.5 41.375 42.9 54.35 30 57.5C17.1 54.35 7.5 41.375 7.5 27.5V12.5L30 2.5L52.5 12.5V27.5ZM30 52.5C39.375 50 47.5 38.85 47.5 28.05V15.75L30 7.95L12.5 15.75V28.05C12.5 38.85 20.625 50 30 52.5ZM30 22.225C34 22.225 37.225 25.45 37.225 29.45C37.225 33.45 34 36.675 30 36.675C26 36.675 22.775 33.425 22.775 29.45C22.775 25.475 26.025 22.225 30 22.225ZM30 15L33.45 20C32.4 19.55 31.25 19.325 30 19.325C28.75 19.325 27.625 19.55 26.55 20L30 15ZM17.5 22.225L23.5 21.725C22.65 22.5 21.85 23.35 21.25 24.4C20.625 25.45 20.25 26.55 20 27.7L17.5 22.225ZM17.5 36.675L20.075 31.25C20.275 32.325 20.675 33.45 21.25 34.5C21.875 35.575 22.65 36.475 23.5 37.2L17.5 36.675ZM42.5 22.225L40 27.7C39.75 26.55 39.35 25.45 38.75 24.4C38.15 23.35 37.375 22.5 36.5 21.7L42.5 22.225ZM42.5 36.675L36.5 37.175C37.35 36.45 38.125 35.55 38.75 34.5C39.35 33.45 39.725 32.325 39.925 31.25L42.5 36.675ZM30 43.875L26.525 38.925C27.6 39.3 28.75 39.55 30 39.55C31.25 39.55 32.375 39.3 33.425 38.925L30 43.875Z" fill="#FFB703"/>
</svg>
