<svg width="30" height="30" viewBox="0 0 30 30" fill="none" xmlns="http://www.w3.org/2000/svg">
<path fill-rule="evenodd" clip-rule="evenodd" d="M28.125 3.75C28.125 3.25272 27.9275 2.77581 27.5758 2.42417C27.2242 2.07254 26.7473 1.875 26.25 1.875H3.75C3.25272 1.875 2.77581 2.07254 2.42417 2.42417C2.07254 2.77581 1.875 3.25272 1.875 3.75V26.25C1.875 26.7473 2.07254 27.2242 2.42417 27.5758C2.77581 27.9275 3.25272 28.125 3.75 28.125H26.25C26.7473 28.125 27.2242 27.9275 27.5758 27.5758C27.9275 27.2242 28.125 26.7473 28.125 26.25V3.75ZM0 3.75C0 2.75544 0.395088 1.80161 1.09835 1.09835C1.80161 0.395088 2.75544 0 3.75 0L26.25 0C27.2446 0 28.1984 0.395088 28.9016 1.09835C29.6049 1.80161 30 2.75544 30 3.75V26.25C30 27.2446 29.6049 28.1984 28.9016 28.9016C28.1984 29.6049 27.2446 30 26.25 30H3.75C2.75544 30 1.80161 29.6049 1.09835 28.9016C0.395088 28.1984 0 27.2446 0 26.25V3.75ZM8.4375 14.0625C8.18886 14.0625 7.9504 14.1613 7.77459 14.3371C7.59877 14.5129 7.5 14.7514 7.5 15C7.5 15.2486 7.59877 15.4871 7.77459 15.6629C7.9504 15.8387 8.18886 15.9375 8.4375 15.9375H19.2994L15.2738 19.9613C15.1866 20.0484 15.1174 20.1519 15.0703 20.2658C15.0231 20.3797 14.9988 20.5017 14.9988 20.625C14.9988 20.7483 15.0231 20.8703 15.0703 20.9842C15.1174 21.0981 15.1866 21.2016 15.2738 21.2887C15.3609 21.3759 15.4644 21.4451 15.5783 21.4922C15.6922 21.5394 15.8142 21.5637 15.9375 21.5637C16.0608 21.5637 16.1828 21.5394 16.2967 21.4922C16.4106 21.4451 16.5141 21.3759 16.6012 21.2887L22.2262 15.6637C22.3136 15.5767 22.3828 15.4732 22.4301 15.3593C22.4773 15.2454 22.5017 15.1233 22.5017 15C22.5017 14.8767 22.4773 14.7546 22.4301 14.6407C22.3828 14.5268 22.3136 14.4233 22.2262 14.3363L16.6012 8.71125C16.5141 8.62408 16.4106 8.55494 16.2967 8.50777C16.1828 8.4606 16.0608 8.43632 15.9375 8.43632C15.8142 8.43632 15.6922 8.4606 15.5783 8.50777C15.4644 8.55494 15.3609 8.62408 15.2738 8.71125C15.1866 8.79842 15.1174 8.90189 15.0703 9.01578C15.0231 9.12967 14.9988 9.25173 14.9988 9.375C14.9988 9.49827 15.0231 9.62033 15.0703 9.73422C15.1174 9.84811 15.1866 9.95158 15.2738 10.0387L19.2994 14.0625H8.4375Z" fill="white"/>
</svg>
