<svg width="32" height="32" viewBox="0 0 32 32" fill="none" xmlns="http://www.w3.org/2000/svg">
<path d="M20.9521 6.89141C22.8376 7.65401 24.4521 8.96271 25.5884 10.6495C26.7247 12.3363 27.3309 14.3242 27.3292 16.3581C27.3309 18.3918 26.7246 20.3796 25.5883 22.0663C24.452 23.753 22.8375 25.0615 20.9521 25.824V27.9535C23.3924 27.1499 25.5165 25.5961 27.0215 23.5139C28.5265 21.4316 29.3355 18.9273 29.3331 16.3581C29.3331 10.9493 25.8214 6.35808 20.9521 4.75579V6.89141ZM20.9521 11.9192C21.5937 12.4672 22.1086 13.148 22.4612 13.9145C22.8138 14.6811 22.9956 15.5151 22.994 16.3588C22.9957 17.2025 22.8139 18.0364 22.4613 18.8029C22.1088 19.5693 21.5938 20.25 20.9521 20.7977V22.9646C23.2302 21.6457 24.7616 19.1809 24.7616 16.3588C24.7622 15.0203 24.4104 13.7052 23.7417 12.5457C23.073 11.3862 22.1109 10.4231 20.9521 9.75313V11.9192ZM3.42829 22.4602H9.52353L16.3807 30.8526C17.1426 31.9497 18.9254 31.8666 19.4283 30.6225V2.15617C18.8104 0.912745 17.1891 0.812936 16.3807 1.86513L9.52353 10.2865H3.42829C1.47705 10.2865 1.14258 10.6377 1.14258 12.5447V20.1729C1.14258 22.0335 1.52353 22.4602 3.42829 22.4602Z" fill="#FFB703"/>
</svg>
