<svg width="62" height="61" viewBox="0 0 62 61" fill="none" xmlns="http://www.w3.org/2000/svg">
<path d="M60.8147 29.4485C60.4435 28.9151 59.7775 28.5894 59.0597 28.5894C53.0035 28.5894 47.459 31.2904 44.3016 35.707H19.9796C17.2409 35.707 14.6657 36.6324 12.7292 38.3131L0.600214 48.8366C-0.199804 49.5312 -0.200338 50.6582 0.600214 51.3533C5.58083 55.6744 10.8077 60.1762 10.86 60.2207C11.6605 60.9107 12.9524 60.9088 13.7514 60.2193L21.5299 53.5011H38.71C44.0682 53.5011 48.941 50.9437 51.4249 46.8269C51.4874 46.7236 57.699 36.4382 60.8745 31.1968C61.2088 30.6449 61.1864 29.9823 60.8147 29.4485ZM47.7917 45.1759C46.0175 48.1161 42.5376 49.9423 38.71 49.9423H20.6834C20.1408 49.9423 19.6207 50.1286 19.2367 50.4603L12.303 56.4487C10.6693 55.04 7.85806 52.6132 4.95118 50.0943L15.6291 40.8293C16.7912 39.821 18.3363 39.2658 19.9796 39.2658H42.1002L40.5264 41.8714C40.1712 42.4595 39.4753 42.8246 38.71 42.8246H24.785C23.6523 42.8246 22.7342 43.6212 22.7342 44.604C22.7342 45.5869 23.6523 46.3835 24.785 46.3835H38.71C41.0054 46.3835 43.0936 45.2875 44.1595 43.5234C44.1595 43.5234 47.3132 38.3029 47.3249 38.2825C49.0424 35.4633 51.9733 33.4401 55.3972 32.5916C52.125 38.0003 47.844 45.0897 47.7917 45.1759Z" fill="#219EBC"/>
<path d="M41.1914 7.11768C41.1914 3.19276 37.5112 0 32.9883 0C28.4648 0 24.7852 3.19276 24.7852 7.11768C24.7852 11.0426 28.4648 14.2354 32.9883 14.2354C37.5112 14.2354 41.1914 11.0426 41.1914 7.11768ZM32.9883 10.6765C30.7265 10.6765 28.8867 9.08013 28.8867 7.11768C28.8867 5.15522 30.7265 3.55884 32.9883 3.55884C35.25 3.55884 37.0898 5.15522 37.0898 7.11768C37.0898 9.08013 35.25 10.6765 32.9883 10.6765Z" fill="#219EBC"/>
<path d="M22.7344 28.4705H43.2422C44.3744 28.4705 45.293 27.6739 45.293 26.6911V24.9117C45.293 19.0249 39.7729 14.2354 32.9883 14.2354C26.2036 14.2354 20.6836 19.0249 20.6836 24.9117V26.6911C20.6836 27.6739 21.6016 28.4705 22.7344 28.4705ZM32.9883 17.7941C37.5112 17.7941 41.1914 20.9868 41.1914 24.9117H24.7852C24.7852 20.9868 28.4648 17.7941 32.9883 17.7941Z" fill="#219EBC"/>
</svg>
