<svg width="30" height="30" viewBox="0 0 30 30" fill="none" xmlns="http://www.w3.org/2000/svg">
<path d="M26.668 5H3.33464C2.89261 5 2.46868 5.17559 2.15612 5.48816C1.84356 5.80072 1.66797 6.22464 1.66797 6.66667V23.3333C1.66797 23.7754 1.84356 24.1993 2.15612 24.5118C2.46868 24.8244 2.89261 25 3.33464 25H26.668C27.11 25 27.5339 24.8244 27.8465 24.5118C28.159 24.1993 28.3346 23.7754 28.3346 23.3333V6.66667C28.3346 6.22464 28.159 5.80072 27.8465 5.48816C27.5339 5.17559 27.11 5 26.668 5ZM25.3846 23.3333H4.71797L10.5513 17.3L9.3513 16.1417L3.33464 22.3667V7.93333L13.693 18.2417C14.0052 18.5521 14.4277 18.7263 14.868 18.7263C15.3083 18.7263 15.7307 18.5521 16.043 18.2417L26.668 7.675V22.2583L20.5346 16.125L19.3596 17.3L25.3846 23.3333ZM4.4263 6.66667H25.318L14.868 17.0583L4.4263 6.66667Z" fill="white"/>
</svg>
