<svg width="30" height="30" viewBox="0 0 30 30" fill="none" xmlns="http://www.w3.org/2000/svg">
<path d="M10.3125 3.75C9.56658 3.75 8.85121 4.04632 8.32376 4.57376C7.79632 5.10121 7.5 5.81658 7.5 6.5625V11.25C6.50544 11.25 5.55161 11.6451 4.84835 12.3483C4.14509 13.0516 3.75 14.0054 3.75 15V23.4375C3.75 24.1834 4.04632 24.8988 4.57376 25.4262C5.10121 25.9537 5.81658 26.25 6.5625 26.25H17.8125C17.3954 25.6955 17.1071 25.055 16.9688 24.375H6.5625C6.31386 24.375 6.0754 24.2762 5.89959 24.1004C5.72377 23.9246 5.625 23.6861 5.625 23.4375V15C5.625 14.5027 5.82254 14.0258 6.17417 13.6742C6.52581 13.3225 7.00272 13.125 7.5 13.125H16.9688C17.1094 12.4312 17.4019 11.7937 17.8125 11.25H9.375V6.5625C9.375 6.31386 9.47377 6.0754 9.64959 5.89959C9.8254 5.72377 10.0639 5.625 10.3125 5.625H19.6875C19.9361 5.625 20.1746 5.72377 20.3504 5.89959C20.5262 6.0754 20.625 6.31386 20.625 6.5625V9.46875C20.9287 9.40688 21.2419 9.375 21.5625 9.375H22.5V6.5625C22.5 5.81658 22.2037 5.10121 21.6762 4.57376C21.1488 4.04632 20.4334 3.75 19.6875 3.75H10.3125ZM21.5625 11.25C20.8166 11.25 20.1012 11.5463 19.5738 12.0738C19.0463 12.6012 18.75 13.3166 18.75 14.0625V23.4375C18.75 24.1834 19.0463 24.8988 19.5738 25.4262C20.1012 25.9537 20.8166 26.25 21.5625 26.25H23.4375C24.1834 26.25 24.8988 25.9537 25.4262 25.4262C25.9537 24.8988 26.25 24.1834 26.25 23.4375V14.0625C26.25 13.3166 25.9537 12.6012 25.4262 12.0738C24.8988 11.5463 24.1834 11.25 23.4375 11.25H21.5625ZM20.625 14.0625C20.625 13.8139 20.7238 13.5754 20.8996 13.3996C21.0754 13.2238 21.3139 13.125 21.5625 13.125H23.4375C23.6861 13.125 23.9246 13.2238 24.1004 13.3996C24.2762 13.5754 24.375 13.8139 24.375 14.0625V23.4375C24.375 23.6861 24.2762 23.9246 24.1004 24.1004C23.9246 24.2762 23.6861 24.375 23.4375 24.375H21.5625C21.3139 24.375 21.0754 24.2762 20.8996 24.1004C20.7238 23.9246 20.625 23.6861 20.625 23.4375V14.0625ZM9.375 15.9375C9.375 16.1861 9.27623 16.4246 9.10041 16.6004C8.9246 16.7762 8.68614 16.875 8.4375 16.875C8.18886 16.875 7.9504 16.7762 7.77459 16.6004C7.59877 16.4246 7.5 16.1861 7.5 15.9375C7.5 15.6889 7.59877 15.4504 7.77459 15.2746C7.9504 15.0988 8.18886 15 8.4375 15C8.68614 15 8.9246 15.0988 9.10041 15.2746C9.27623 15.4504 9.375 15.6889 9.375 15.9375ZM8.4375 20.625C8.68614 20.625 8.9246 20.5262 9.10041 20.3504C9.27623 20.1746 9.375 19.9361 9.375 19.6875C9.375 19.4389 9.27623 19.2004 9.10041 19.0246C8.9246 18.8488 8.68614 18.75 8.4375 18.75C8.18886 18.75 7.9504 18.8488 7.77459 19.0246C7.59877 19.2004 7.5 19.4389 7.5 19.6875C7.5 19.9361 7.59877 20.1746 7.77459 20.3504C7.9504 20.5262 8.18886 20.625 8.4375 20.625ZM13.125 15.9375C13.125 16.1861 13.0262 16.4246 12.8504 16.6004C12.6746 16.7762 12.4361 16.875 12.1875 16.875C11.9389 16.875 11.7004 16.7762 11.5246 16.6004C11.3488 16.4246 11.25 16.1861 11.25 15.9375C11.25 15.6889 11.3488 15.4504 11.5246 15.2746C11.7004 15.0988 11.9389 15 12.1875 15C12.4361 15 12.6746 15.0988 12.8504 15.2746C13.0262 15.4504 13.125 15.6889 13.125 15.9375ZM12.1875 20.625C12.4361 20.625 12.6746 20.5262 12.8504 20.3504C13.0262 20.1746 13.125 19.9361 13.125 19.6875C13.125 19.4389 13.0262 19.2004 12.8504 19.0246C12.6746 18.8488 12.4361 18.75 12.1875 18.75C11.9389 18.75 11.7004 18.8488 11.5246 19.0246C11.3488 19.2004 11.25 19.4389 11.25 19.6875C11.25 19.9361 11.3488 20.1746 11.5246 20.3504C11.7004 20.5262 11.9389 20.625 12.1875 20.625Z" fill="white"/>
</svg>
