<svg width="50" height="50" viewBox="0 0 50 50" fill="none" xmlns="http://www.w3.org/2000/svg">
<path d="M22.2813 18.6189V21.4877H20.1813V24.9939H22.2813V35.4168H26.5979V24.9939H29.4938C29.4938 24.9939 29.7667 23.3127 29.8979 21.4731H26.6146V19.0772C26.6146 18.7168 27.0854 18.2356 27.5521 18.2356H29.9021V14.5835H26.7042C22.175 14.5835 22.2813 18.0939 22.2813 18.6189Z" fill="white"/>
<path d="M25.0001 41.6665C29.4204 41.6665 33.6596 39.9106 36.7852 36.785C39.9108 33.6593 41.6668 29.4201 41.6668 24.9998C41.6668 20.5796 39.9108 16.3403 36.7852 13.2147C33.6596 10.0891 29.4204 8.33317 25.0001 8.33317C20.5798 8.33317 16.3406 10.0891 13.215 13.2147C10.0894 16.3403 8.33342 20.5796 8.33342 24.9998C8.33342 29.4201 10.0894 33.6593 13.215 36.785C16.3406 39.9106 20.5798 41.6665 25.0001 41.6665ZM25.0001 45.8332C13.4938 45.8332 4.16675 36.5061 4.16675 24.9998C4.16675 13.4936 13.4938 4.1665 25.0001 4.1665C36.5063 4.1665 45.8334 13.4936 45.8334 24.9998C45.8334 36.5061 36.5063 45.8332 25.0001 45.8332Z" fill="white"/>
</svg>
