<svg width="60" height="60" viewBox="0 0 60 60" fill="none" xmlns="http://www.w3.org/2000/svg">
<path d="M30 26.1814L26.9569 35.5461H17.1094L25.0763 41.3342L22.0312 50.698L30 44.9117L37.9669 50.698L34.9219 41.3342L42.8888 35.5461H33.0412L30 26.1814ZM32.6606 40.3564L34.3031 45.4151L30 42.2876L25.6931 45.4151L27.3394 40.3564L23.0344 37.2289H28.3556L30 32.1701L31.6444 37.2289H36.9638L32.6606 40.3564Z" fill="#FFB703"/>
<path d="M41.8659 24.8616V16.7072C41.8659 16.3659 41.6794 16.0791 41.415 15.9009L50.625 1.875H32.9672L30.0009 6.32437L27.0347 1.875H9.375L18.5841 15.9C18.4481 15.9868 18.3359 16.106 18.2574 16.2469C18.1788 16.3878 18.1365 16.5459 18.1341 16.7072V24.8616C13.9331 28.3003 11.25 33.5231 11.25 39.375C11.25 49.7297 19.6453 58.125 30 58.125H30.0009C30.6394 58.125 31.2703 58.0922 31.8919 58.0294C41.3578 57.0816 48.75 49.0922 48.75 39.375C48.75 33.5231 46.0669 28.3003 41.8659 24.8616ZM38.2744 2.8125H44.2069L35.9334 15.2241L32.9672 10.7747L38.2744 2.8125ZM38.8997 19.6734L39.8119 18.3066C39.8606 18.4237 39.8888 18.5513 39.8888 18.6853V22.6406C39.8866 22.8876 39.7864 23.1237 39.6103 23.2969C36.7978 21.6112 33.5175 20.625 30 20.625C26.6131 20.6257 23.2906 21.5498 20.3897 23.2978C20.2135 23.1243 20.1134 22.8879 20.1112 22.6406V18.6853C20.1112 18.5513 20.1394 18.4228 20.1881 18.3066L21.1003 19.6744H38.8997V19.6734ZM15.7931 2.8125H21.7256L32.3419 18.7359H26.4094L15.7931 2.8125ZM30 55.3125C21.1988 55.3125 14.0625 48.1772 14.0625 39.375C14.0625 30.5728 21.1988 23.4375 30 23.4375C38.8013 23.4375 45.9375 30.5728 45.9375 39.375C45.9375 48.1772 38.8013 55.3125 30 55.3125Z" fill="#FFB703"/>
</svg>
