<svg width="15" height="16" viewBox="0 0 15 16" fill="none" xmlns="http://www.w3.org/2000/svg">
<g clip-path="url(#clip0)">
<path fill-rule="evenodd" clip-rule="evenodd" d="M0.584325 10.3501C0.572584 9.61626 0.5721 9.38239 0.628125 7.51573C0.68415 5.64907 0.699284 5.41567 0.754369 4.68449C0.809454 3.95332 0.941277 3.45705 1.1237 3.02482C1.31049 2.5721 1.59346 2.16478 1.95362 1.83169C2.30709 1.49214 2.73 1.23471 3.19372 1.07605C3.63612 0.919249 4.13939 0.818052 4.87132 0.806255C5.60638 0.794551 5.84025 0.794067 7.70628 0.850073C9.57294 0.906098 9.80634 0.921232 10.5381 0.976336C11.2681 1.03138 11.7643 1.16321 12.1965 1.34625C12.65 1.53245 13.0574 1.81524 13.3903 2.17494C13.7299 2.52904 13.9873 2.95257 14.146 3.41567C14.3028 3.85807 14.404 4.36133 14.4158 5.09327C14.4275 5.8277 14.428 6.06157 14.3719 7.92823C14.3159 9.79489 14.3008 10.0283 14.2457 10.7601C14.1906 11.49 14.0588 11.9863 13.8758 12.4185C13.6895 12.8719 13.4068 13.2793 13.0471 13.6123C12.6934 13.9516 12.27 14.2097 11.8063 14.3685C11.3639 14.5247 10.8607 14.6259 10.1287 14.6377C9.39369 14.6494 9.15982 14.6499 7.29378 14.5939C5.42712 14.5379 5.19372 14.5227 4.46254 14.4676C3.73137 14.4126 3.2351 14.2807 2.80288 14.0983C2.34957 13.9117 1.94241 13.6285 1.60974 13.2684C1.2705 12.9149 1.01242 12.4917 0.853475 12.0283C0.697302 11.5859 0.596104 11.0826 0.584307 10.3507L0.584325 10.3501ZM1.98964 4.77722C1.93478 5.5009 1.92139 5.71809 1.86632 7.55289C1.81125 9.38769 1.8116 9.6053 1.82296 10.331C1.83345 11.0022 1.93436 11.3692 2.02142 11.6144C2.13674 11.9386 2.27792 12.1723 2.51122 12.4201C2.72618 12.6547 2.99094 12.8383 3.28607 12.9573C3.52563 13.0589 3.88586 13.1816 4.55527 13.2324C5.27895 13.2872 5.49614 13.3006 7.33094 13.3557C9.16574 13.4108 9.38335 13.4104 10.109 13.3991C10.7803 13.3886 11.1472 13.2876 11.3924 13.2006C11.6937 13.0996 11.9695 12.9322 12.1981 12.7108C12.4328 12.4959 12.6164 12.2306 12.7353 11.9359C12.837 11.6964 12.9597 11.3361 13.0104 10.6667C13.0653 9.94306 13.0787 9.72649 13.1337 7.89107C13.1888 6.05564 13.1885 5.83866 13.1771 5.11299C13.1666 4.44175 13.0657 4.07481 12.9786 3.82959C12.8633 3.50535 12.7221 3.27164 12.4888 3.0239C12.2739 2.78922 12.0087 2.60556 11.714 2.48667C11.4744 2.38506 11.1142 2.26232 10.4448 2.21159C9.72111 2.15673 9.50392 2.14333 7.66912 2.08827C5.83432 2.0332 5.61671 2.03354 4.89104 2.0449C4.2198 2.0554 3.85286 2.15631 3.60764 2.24337C3.28341 2.35869 3.04969 2.49987 2.80196 2.73317C2.56732 2.94814 2.38376 3.2129 2.26472 3.50802C2.16311 3.74758 2.04037 4.10781 1.98964 4.77722ZM9.59211 8.66329C9.81087 8.17922 9.8548 7.63422 9.71637 7.12137C9.57795 6.60852 9.26577 6.15963 8.83315 5.85137C8.40053 5.54312 7.87431 5.39462 7.34437 5.43125C6.81443 5.46787 6.31364 5.68734 5.92754 6.05218C5.68075 6.28473 5.48859 6.56911 5.3649 6.88484C5.24121 7.20057 5.18906 7.5398 5.2122 7.8781C5.23535 8.21641 5.33321 8.54537 5.49876 8.84132C5.6643 9.13726 5.8934 9.39282 6.16956 9.58959C6.44572 9.78637 6.76208 9.91946 7.09585 9.9793C7.42963 10.0391 7.77252 10.0242 8.09984 9.93563C8.42716 9.84704 8.73077 9.68698 8.9888 9.46698C9.24684 9.24697 9.45289 8.97249 9.59211 8.66329ZM4.92744 10.1446C4.60929 9.8068 4.3608 9.40961 4.19616 8.97574C4.03151 8.54187 3.95393 8.07982 3.96786 7.61597C3.98178 7.15211 4.08692 6.69555 4.2773 6.27233C4.46767 5.84912 4.73953 5.46754 5.07737 5.14939C5.41521 4.83124 5.8124 4.58275 6.24627 4.4181C6.68014 4.25346 7.14219 4.17588 7.60604 4.1898C8.0699 4.20373 8.52646 4.30887 8.94968 4.49924C9.37289 4.68961 9.75447 4.96148 10.0726 5.29932C10.7151 5.98161 11.0603 6.8912 11.0322 7.82799C11.0041 8.76478 10.605 9.65204 9.92269 10.2946C9.2404 10.9371 8.33081 11.2823 7.39402 11.2542C6.45723 11.226 5.56997 10.8269 4.92744 10.1446ZM4.62341 3.3162C4.54918 3.23262 4.45893 3.16478 4.35801 3.11671C4.25709 3.06863 4.14755 3.04129 4.03587 3.03631C3.9242 3.03133 3.81266 3.0488 3.70786 3.0877C3.60306 3.1266 3.50713 3.18613 3.42575 3.26277C3.34437 3.33941 3.27919 3.43159 3.23408 3.53387C3.18896 3.63615 3.16483 3.74644 3.16311 3.85821C3.16138 3.96999 3.1821 4.08097 3.22404 4.18459C3.26598 4.28821 3.32828 4.38237 3.40725 4.46148C3.56085 4.61534 3.76836 4.70328 3.98574 4.70663C4.20312 4.70998 4.41325 4.62849 4.57152 4.47944C4.72979 4.33039 4.82374 4.12553 4.83343 3.90835C4.84312 3.69116 4.76778 3.47874 4.62341 3.3162Z" fill="white"/>
</g>
<defs>
<clipPath id="clip0">
<rect width="15" height="15" fill="white" transform="translate(0 15.2216) rotate(-90)"/>
</clipPath>
</defs>
</svg>
