<svg width="70" height="61" viewBox="0 0 70 61" fill="none" xmlns="http://www.w3.org/2000/svg">
<path d="M68.9746 58.9579H45.5913V50.5309C46.178 50.6734 46.7954 50.7512 47.4338 50.7512H63.1545C66.929 50.7512 69.9999 48.0867 69.9999 44.8116C69.9999 44.3202 69.5408 43.9218 68.9745 43.9218H66.1455L58.0907 30.9733C58.905 30.32 59.4161 29.3864 59.4161 28.3509C59.4161 26.6872 58.0978 25.2852 56.3195 24.889V10.5635H58.8655V11.0606C58.8655 12.2109 60.9163 12.2109 60.9163 11.0606V10.5635H65.9747C69.5047 10.5635 69.5099 5.79152 65.9747 5.79152H60.9163V4.89694C60.9163 3.74661 58.8655 3.74661 58.8655 4.89694V5.79163H56.3195V4.89694C56.3195 3.74661 54.2687 3.74661 54.2687 4.89694V5.79163H45.7976V3.92456C45.7976 2.1748 44.157 0.751268 42.1404 0.751268C41.3045 0.751268 40.5337 0.996353 39.9171 1.4074C39.26 0.559329 38.1436 0 36.8792 0C35.6148 0 34.4984 0.559329 33.8413 1.40752C33.2247 0.996471 32.4539 0.751387 31.618 0.751387C30.2431 0.751387 29.0434 1.41333 28.4189 2.38892C27.8314 2.03956 27.1213 1.83469 26.3568 1.83469C24.3402 1.83469 22.6996 3.25822 22.6996 5.00798V5.79152H15.7313V4.89694C15.7313 3.74661 13.6805 3.74661 13.6805 4.89694V5.79163H11.1345V4.89694C11.1345 3.74661 9.08373 3.74661 9.08373 4.89694V5.79163H4.02527C0.495332 5.79163 0.490137 10.5637 4.02527 10.5637H9.08373V11.0607C9.08373 12.211 11.1345 12.211 11.1345 11.0607V10.5637H13.6805V24.889C11.9021 25.2852 10.5839 26.687 10.5839 28.3509C10.5839 29.3864 11.095 30.32 11.9094 30.9734L3.85437 43.9218H1.02539C0.459102 43.9218 0 44.3202 0 44.8116C0 48.0866 3.07084 50.7511 6.84537 50.7511H22.5661C23.2045 50.7511 23.8219 50.6733 24.4085 50.5308V58.9579H1.02539C0.459102 58.9579 0 59.3562 0 59.8476C0 60.339 0.459102 60.7373 1.02539 60.7373H68.9746C69.5409 60.7373 70 60.339 70 59.8476C70 59.3562 69.5409 58.9579 68.9746 58.9579ZM63.8151 43.9218H61.7533C61.187 43.9218 60.7279 44.3202 60.7279 44.8116C60.7279 45.3029 61.187 45.7013 61.7533 45.7013H65.5313C65.5324 45.7013 65.5335 45.7015 65.5348 45.7015C65.536 45.7015 65.5372 45.7013 65.5385 45.7013H67.8387C67.368 47.5693 65.4464 48.9717 63.1545 48.9717H47.4338C45.1418 48.9717 43.2202 47.5692 42.7495 45.7011H45.0491C45.0506 45.7011 45.052 45.7014 45.0535 45.7014C45.0548 45.7014 45.0561 45.7011 45.0574 45.7011H56.2948V43.9217H46.773L54.3015 31.8192C54.9631 31.9598 55.6247 31.9598 56.2864 31.8192L63.8151 43.9218ZM26.4595 31.9351H43.5407V36.0386H26.4595V31.9351ZM57.3654 28.3508C57.3654 29.3403 56.4363 30.1453 55.2943 30.1453C54.1522 30.1453 53.223 29.3403 53.223 28.3508C53.223 27.3613 54.1521 26.5563 55.2943 26.5563C56.4364 26.5563 57.3654 27.3613 57.3654 28.3508ZM54.2689 24.8889C52.4904 25.2851 51.1722 26.6869 51.1722 28.3508C51.1722 29.3863 51.6832 30.3199 52.4977 30.9733L45.5915 42.0753V31.0454C45.5915 30.5541 45.1324 30.1557 44.5661 30.1557H43.6669C43.5787 28.3935 44.2314 26.684 45.685 25.4243C48.9342 22.6084 51.661 19.7687 51.661 15.5361V11.9509C51.661 11.4536 51.5279 10.9829 51.2915 10.5637H54.269V24.8889H54.2689ZM65.9747 7.57105C66.8784 7.57105 66.8784 8.78425 65.9747 8.78425H60.9163V7.57105H65.9747ZM58.8655 7.57105V8.78425H56.3195V7.57105H58.8655ZM54.2689 7.57105V8.78425L45.7978 8.78045V7.57105H54.2689ZM42.1404 2.53068C43.0262 2.53068 43.7469 3.15597 43.7469 3.92456V8.78034H40.5364V3.88007C40.5639 3.13212 41.272 2.53068 42.1404 2.53068ZM36.8792 1.77941C37.765 1.77941 38.4856 2.40375 38.4856 3.17103L38.483 8.81652C37.6329 8.97334 36.9932 9.62888 36.9932 10.4121C36.9932 11.2607 37.2549 12.0569 37.71 12.7455C36.658 13.2966 35.2728 12.6205 35.2728 11.5549V3.17103C35.2728 2.40375 35.9934 1.77941 36.8792 1.77941ZM31.618 2.53068C32.4866 2.53068 33.1945 3.13212 33.2218 3.87995V10.9662C33.1944 11.714 32.4864 12.3156 31.618 12.3156C30.7322 12.3156 30.0115 11.6903 30.0115 10.9217V3.92456C30.0115 3.15597 30.7322 2.53068 31.618 2.53068ZM24.7503 5.00798C24.7503 4.23939 25.471 3.61411 26.3568 3.61411C27.2254 3.61411 27.9333 4.21555 27.9606 4.9635V9.88298C27.9331 10.6308 27.2252 11.2324 26.3568 11.2324C25.471 11.2324 24.7503 10.6071 24.7503 9.83849V5.00798ZM22.6996 7.57105V8.78425H15.7313V7.57105H22.6996ZM4.02527 8.78413C3.12156 8.78413 3.12156 7.57093 4.02527 7.57093H9.08373V8.78413H4.02527ZM11.1345 8.78413V7.57105H13.6805V8.78425H11.1345V8.78413ZM22.6996 10.5635V14.7197C22.6996 15.211 23.1587 15.6094 23.7249 15.6094C24.2912 15.6094 24.7503 15.211 24.7503 14.7197V12.6883C25.2355 12.8951 25.7808 13.0117 26.3568 13.0117C27.1213 13.0117 27.8314 12.8068 28.4189 12.4574C29.0434 13.433 30.243 14.095 31.618 14.095C32.4826 14.095 33.2775 13.8328 33.9042 13.3959C34.5682 14.2002 35.6538 14.7258 36.8792 14.7258C37.6712 14.7258 38.4322 14.5035 39.0567 14.1021C39.9835 14.7394 41.154 15.1213 42.4262 15.1213H44.0669V15.1409C39.5925 15.5833 36.1055 18.885 36.1055 22.8795C36.1055 23.3708 36.5646 23.7692 37.1309 23.7692C37.6972 23.7692 38.1563 23.3708 38.1563 22.8795C38.1563 19.5657 41.2677 16.8699 45.0923 16.8699C45.6586 16.8699 46.1177 16.4716 46.1177 15.9802V14.2316C46.1177 13.7403 45.6586 13.3419 45.0923 13.3419H42.4262C40.6183 13.3419 39.1374 12.107 39.0482 10.5597C42.0621 10.5597 45.0756 10.5635 48.0893 10.5635C48.9352 10.6026 49.61 11.2089 49.61 11.9508V15.5359C49.61 19.2843 47.0865 21.6944 44.2356 24.1651C42.3754 25.7771 41.5913 27.9144 41.616 30.1557H28.3032C28.3787 28.1723 27.6149 26.3322 26.3598 24.6927C25.3068 23.271 24.7502 21.6269 24.7502 19.9374C24.7502 19.446 24.2911 19.0477 23.7248 19.0477C23.1585 19.0477 22.6994 19.446 22.6994 19.9374C22.6994 21.9711 23.3702 23.9503 24.6392 25.6609C25.6591 27.0305 26.3305 28.5037 26.2525 30.1557H25.4339C24.8676 30.1557 24.4085 30.5541 24.4085 31.0454V42.0753L17.5023 30.9733C18.3168 30.32 18.8278 29.3863 18.8278 28.3508C18.8278 26.687 17.5096 25.2851 15.7311 24.8889V10.5635H22.6996ZM14.7059 26.5563C15.848 26.5563 16.7772 27.3613 16.7772 28.3508C16.7772 29.3403 15.848 30.1453 14.7059 30.1453C13.5637 30.1453 12.6347 29.3403 12.6347 28.3508C12.6347 27.3613 13.5637 26.5563 14.7059 26.5563ZM13.7134 31.8193C14.375 31.9598 15.0366 31.9598 15.6982 31.8193L23.2269 43.922H6.18488L13.7134 31.8193ZM6.84537 48.9718C4.55342 48.9718 2.63184 47.5693 2.16111 45.7014H4.46182C4.46291 45.7014 4.464 45.7015 4.4651 45.7015C4.46605 45.7015 4.46715 45.7014 4.46811 45.7014H24.9434C24.9443 45.7014 24.9454 45.7015 24.9464 45.7015C24.9475 45.7015 24.9486 45.7014 24.9497 45.7014H27.2504C26.7796 47.5694 24.8581 48.9718 22.5661 48.9718H6.84537ZM26.4595 58.9579V49.6931C28.2416 48.6197 29.4116 46.8324 29.4116 44.8116C29.4116 44.3202 28.9525 43.9218 28.3862 43.9218H26.4595V37.8179H43.5407V43.9218H41.6139C41.0476 43.9218 40.5885 44.3202 40.5885 44.8116C40.5885 46.8324 41.7586 48.6197 43.5407 49.6931V58.9579H26.4595Z" fill="#219EBC"/>
</svg>
