<svg width="16" height="16" viewBox="0 0 16 16" fill="none" xmlns="http://www.w3.org/2000/svg">
<g clip-path="url(#clip0)">
<path fill-rule="evenodd" clip-rule="evenodd" d="M1.46554 1.79173C1.47468 1.4872 1.60442 1.19877 1.82622 0.989899C2.04801 0.781026 2.3437 0.668818 2.64823 0.677958L14.0943 1.0215C14.2453 1.02578 14.3939 1.05979 14.5316 1.12158C14.6694 1.18336 14.7936 1.27172 14.8972 1.38158C15.0007 1.49144 15.0816 1.62065 15.1352 1.76181C15.1888 1.90297 15.214 2.05332 15.2093 2.20423L14.8658 13.6503C14.8614 13.8013 14.8274 13.9499 14.7655 14.0876C14.7036 14.2254 14.6152 14.3496 14.5053 14.4532C14.3954 14.5568 14.2662 14.6376 14.125 14.6912C13.9838 14.7447 13.8334 14.7699 13.6825 14.7653L2.23573 14.4218C2.08489 14.4172 1.93642 14.383 1.7988 14.3211C1.66119 14.2592 1.53712 14.1708 1.43369 14.0609C1.33026 13.951 1.2495 13.8218 1.19601 13.6807C1.14253 13.5396 1.11737 13.3893 1.12198 13.2384L1.46554 1.79173ZM6.78278 6.04691L8.64381 6.10277L8.61576 7.03735C8.90052 6.50815 9.60222 6.04524 10.6349 6.07624C12.6146 6.13566 13.0517 7.21988 12.9927 9.18337L12.8836 12.8205L10.8801 12.7604L10.9758 9.57054C11.0094 8.45229 10.7597 7.81326 10.0775 7.79279C9.13106 7.76438 8.71707 8.43289 8.68499 9.50178L8.58925 12.6916L6.58515 12.6314L6.78278 6.04691ZM3.15177 12.4427L5.15586 12.5029L5.35351 5.91773L3.34941 5.85758L3.15178 12.4421L3.15177 12.4427ZM5.70472 3.77855C5.70334 3.95025 5.66769 4.11996 5.59984 4.2777C5.532 4.43544 5.43333 4.57804 5.30963 4.69713C5.18592 4.81622 5.03968 4.9094 4.87947 4.97121C4.71927 5.03301 4.54834 5.0622 4.3767 5.05704C4.20507 5.05189 4.03619 5.01251 3.87998 4.94121C3.72377 4.86991 3.58338 4.76812 3.46704 4.64183C3.3507 4.51553 3.26076 4.36727 3.2025 4.20575C3.14424 4.04422 3.11882 3.87268 3.12775 3.7012C3.14528 3.36461 3.29391 3.04826 3.54181 2.81991C3.78971 2.59155 4.11717 2.46934 4.45406 2.47945C4.79096 2.48957 5.1105 2.63119 5.34426 2.87401C5.57802 3.11682 5.70741 3.44151 5.70472 3.77855Z" fill="white"/>
</g>
<defs>
<clipPath id="clip0">
<rect width="15" height="15" fill="white" transform="translate(0.893555) rotate(1.71913)"/>
</clipPath>
</defs>
</svg>
