<svg width="50" height="50" viewBox="0 0 50 50" fill="none" xmlns="http://www.w3.org/2000/svg">
<path d="M35.4166 27.3542V35.0563H30.952V27.8688C30.952 26.0646 30.3062 24.8334 28.6895 24.8334C27.4562 24.8334 26.7208 25.6625 26.3978 26.4667C26.2812 26.7542 26.2499 27.1542 26.2499 27.5542V35.0563H21.7833C21.7833 35.0563 21.8437 22.8855 21.7833 21.625H26.2499V23.5271L26.2208 23.5709H26.2499V23.5292C26.8437 22.6125 27.902 21.3084 30.2749 21.3084C33.2124 21.3084 35.4166 23.2292 35.4166 27.3542ZM17.1103 15.1479C15.5833 15.1479 14.5833 16.1521 14.5833 17.4688C14.5833 18.7605 15.5541 19.7917 17.052 19.7917H17.0812C18.6395 19.7917 19.6083 18.7584 19.6083 17.4688C19.5791 16.1521 18.6395 15.1479 17.1103 15.1479ZM14.8478 35.0563H19.3145V21.625H14.8478V35.0563Z" fill="white"/>
<path d="M25.0001 41.6665C29.4204 41.6665 33.6596 39.9106 36.7852 36.785C39.9108 33.6593 41.6668 29.4201 41.6668 24.9998C41.6668 20.5796 39.9108 16.3403 36.7852 13.2147C33.6596 10.0891 29.4204 8.33317 25.0001 8.33317C20.5798 8.33317 16.3406 10.0891 13.215 13.2147C10.0894 16.3403 8.33342 20.5796 8.33342 24.9998C8.33342 29.4201 10.0894 33.6593 13.215 36.785C16.3406 39.9106 20.5798 41.6665 25.0001 41.6665ZM25.0001 45.8332C13.4938 45.8332 4.16675 36.5061 4.16675 24.9998C4.16675 13.4936 13.4938 4.1665 25.0001 4.1665C36.5063 4.1665 45.8334 13.4936 45.8334 24.9998C45.8334 36.5061 36.5063 45.8332 25.0001 45.8332Z" fill="white"/>
</svg>
