<svg width="50" height="50" viewBox="0 0 50 50" fill="none" xmlns="http://www.w3.org/2000/svg">
<path d="M24.0208 29.158C22.4166 28.9893 20.9729 28.5914 19.7354 27.6164C19.5812 27.4955 19.4229 27.3789 19.2833 27.2414C18.7416 26.7205 18.6854 26.1185 19.1166 25.5018C19.4812 24.9726 20.0958 24.831 20.7375 25.133C20.8612 25.194 20.9796 25.2651 21.0916 25.3455C23.3979 26.9414 26.5666 26.9851 28.8833 25.4164C29.106 25.2346 29.3633 25.1 29.6395 25.0205C29.8957 24.9455 30.1697 24.959 30.4173 25.0588C30.6648 25.1585 30.8716 25.3388 31.0041 25.5705C31.3437 26.1268 31.3375 26.6685 30.9208 27.0997C30.2818 27.7497 29.5091 28.253 28.6562 28.5747C27.8479 28.8914 26.9604 29.0497 26.0833 29.156C26.2166 29.3018 26.2791 29.3726 26.3625 29.456C27.552 30.6601 28.7479 31.8601 29.9354 33.0685C30.3395 33.481 30.425 33.9914 30.202 34.4705C29.9583 34.9914 29.4125 35.3372 28.8791 35.2997C28.5554 35.2671 28.2562 35.113 28.0416 34.8685C27.1437 33.958 26.2291 33.0643 25.3479 32.1372C25.0916 31.8664 24.9666 31.9185 24.7416 32.1518C23.8375 33.0893 22.9187 34.0122 21.9937 34.931C21.5791 35.3414 21.0854 35.4164 20.6041 35.181C20.3576 35.0648 20.1498 34.8799 20.0057 34.6486C19.8616 34.4173 19.7873 34.1493 19.7916 33.8768C19.8186 33.5395 19.9755 33.2258 20.2291 33.0018L23.7583 29.4414C23.8354 29.3622 23.9083 29.2789 24.0208 29.158Z" fill="white"/>
<path d="M24.9748 25.0002C23.5987 24.9881 22.2831 24.4325 21.3149 23.4545C20.3467 22.4766 19.8043 21.1555 19.806 19.7793C19.8126 18.3972 20.3671 17.0741 21.3477 16.1001C22.3283 15.1261 23.6551 14.5807 25.0373 14.5835C25.7247 14.5873 26.4046 14.727 27.0379 14.9945C27.6711 15.2621 28.2453 15.6522 28.7272 16.1425C29.2091 16.6327 29.5893 17.2134 29.846 17.8512C30.1026 18.4889 30.2307 19.1711 30.2227 19.8585C30.2081 22.7043 27.854 25.0106 24.9748 25.0002ZM27.5665 19.7877C27.5673 19.4529 27.5018 19.1212 27.3739 18.8118C27.246 18.5024 27.0581 18.2214 26.821 17.9849C26.584 17.7485 26.3025 17.5612 25.9928 17.4341C25.6831 17.3069 25.3513 17.2423 25.0165 17.2439C24.679 17.2422 24.3445 17.3078 24.0327 17.4367C23.7208 17.5657 23.4377 17.7554 23.2 17.9949C22.9622 18.2344 22.7745 18.5189 22.6479 18.8317C22.5212 19.1445 22.4581 19.4794 22.4623 19.8168C22.4639 20.1517 22.5318 20.4829 22.662 20.7913C22.7922 21.0998 22.9822 21.3794 23.2209 21.6142C23.4597 21.8489 23.7426 22.034 24.0533 22.1589C24.3639 22.2838 24.6962 22.346 25.031 22.3418C25.3657 22.3421 25.697 22.2761 26.006 22.1476C26.3149 22.0191 26.5954 21.8307 26.8311 21.5932C27.0669 21.3558 27.2532 21.0739 27.3794 20.764C27.5056 20.4541 27.5692 20.1223 27.5665 19.7877Z" fill="white"/>
<path d="M25 41.6665C29.4202 41.6665 33.6595 39.9106 36.7851 36.785C39.9107 33.6593 41.6666 29.4201 41.6666 24.9998C41.6666 20.5796 39.9107 16.3403 36.7851 13.2147C33.6595 10.0891 29.4202 8.33317 25 8.33317C20.5797 8.33317 16.3405 10.0891 13.2148 13.2147C10.0892 16.3403 8.33329 20.5796 8.33329 24.9998C8.33329 29.4201 10.0892 33.6593 13.2148 36.785C16.3405 39.9106 20.5797 41.6665 25 41.6665ZM25 45.8332C13.4937 45.8332 4.16663 36.5061 4.16663 24.9998C4.16663 13.4936 13.4937 4.1665 25 4.1665C36.5062 4.1665 45.8333 13.4936 45.8333 24.9998C45.8333 36.5061 36.5062 45.8332 25 45.8332Z" fill="white"/>
</svg>
