<svg width="70" height="61" viewBox="0 0 70 61" fill="none" xmlns="http://www.w3.org/2000/svg">
<path d="M63.8213 44.6226V32.3941C63.8213 26.4467 59.2285 21.4132 52.9588 19.8218C52.7312 18.4504 52.1105 17.1461 51.1537 16.037C52.1523 13.3271 51.3445 10.3673 48.9891 8.32374C48.5883 7.97604 48.1497 7.66251 47.6811 7.38824C45.59 2.95252 40.553 0 35 0C29.4469 0 24.41 2.95252 22.3188 7.38824C21.85 7.66251 21.4115 7.97604 21.0109 8.32362C18.6555 10.3673 17.8477 13.327 18.8463 16.0369C17.8895 17.146 17.2688 18.4503 17.0412 19.8217C10.7717 21.4131 6.17873 26.4466 6.17873 32.394V39.1429C6.17873 41.0239 7.03295 42.7338 8.42037 44C3.62633 44.8232 0 48.4984 0 52.8959V59.551C0 60.2062 0.61209 60.7373 1.36719 60.7373H42.5748C43.3299 60.7373 43.942 60.2062 43.942 59.551C43.942 58.8959 43.3299 58.3648 42.5748 58.3648H30.1885V52.8959C30.1885 49.2033 33.6509 46.1991 37.9066 46.1991H43.7318C44.2489 48.1788 46.2915 49.6616 48.7271 49.6616C51.1628 49.6616 53.2053 48.1788 53.7224 46.1991H59.5476C63.8034 46.1991 67.2658 49.2033 67.2658 52.8959V58.3648H54.8789C54.1238 58.3648 53.5117 58.8959 53.5117 59.551C53.5117 60.2062 54.1238 60.7373 54.8789 60.7373H68.6328C69.3879 60.7373 70 60.2062 70 59.551V52.8959C70 49.216 67.4594 46.0431 63.8213 44.6226ZM21.4174 17.0548C21.7731 16.7113 21.8668 16.2199 21.6575 15.7955C20.6764 13.8053 21.1816 11.531 22.9444 10.0014C23.3004 9.69246 23.6996 9.42259 24.1309 9.19933C24.3994 9.0603 24.6049 8.8457 24.713 8.59124C26.2948 4.87168 30.4288 2.37255 35 2.37255C39.5712 2.37255 43.7052 4.87168 45.2869 8.59124C45.3951 8.84582 45.6006 9.06042 45.8693 9.19933C46.3002 9.42235 46.6993 9.69223 47.0556 10.0013C48.8184 11.5308 49.3236 13.8052 48.3425 15.7954C48.1332 16.2199 48.2269 16.7113 48.5826 17.0547C49.2676 17.7162 49.7658 18.5026 50.0496 19.3479C49.6136 19.3149 49.1727 19.297 48.727 19.297C46.5192 19.297 44.4206 19.7106 42.5287 20.4528C43.3519 19.289 43.8277 17.9211 43.8277 16.4581V12.8272C43.8277 12.172 43.2156 11.6409 42.4605 11.6409H37.9055C35.9774 11.6409 34.4088 10.2799 34.4088 8.60702C34.4088 7.95184 33.7967 7.42075 33.0416 7.42075C32.2865 7.42075 31.6745 7.95184 31.6745 8.60702C31.6745 9.38712 31.8674 10.1284 32.2115 10.7988C31.656 11.3277 30.8636 11.6409 30.0184 11.6409H27.5395C26.7844 11.6409 26.1723 12.172 26.1723 12.8272V16.4581C26.1723 17.9209 26.648 19.289 27.4713 20.4528C25.5793 19.7106 23.4808 19.297 21.2729 19.297C20.8272 19.297 20.3863 19.3149 19.9504 19.3479C20.2342 18.5027 20.7324 17.7162 21.4174 17.0548ZM30.0184 14.0136C31.4635 14.0136 32.8288 13.5378 33.864 12.7172C34.953 13.5245 36.3642 14.0136 37.9054 14.0136H41.0931V16.4583C41.0931 19.3735 38.3597 21.7453 34.9999 21.7453C31.64 21.7453 28.9066 19.3735 28.9066 16.4583V14.0136H30.0184ZM35 24.1179C35.7927 24.1179 36.5606 24.0253 37.2921 23.8545C36.3702 24.7825 35.5958 25.8237 35 26.9503C34.4042 25.8237 33.6298 24.7826 32.7079 23.8545C33.4394 24.0253 34.2073 24.1179 35 24.1179ZM8.91311 32.3941C8.91311 26.4806 14.4577 21.6697 21.273 21.6697C28.0883 21.6697 33.6328 26.4806 33.6328 32.3941V39.1431C33.6328 41.7257 31.2114 43.8267 28.2349 43.8267H26.3959V42.1208C28.666 40.724 30.1517 38.4277 30.1517 35.8347V32.1788C30.1517 31.5236 29.5396 30.9925 28.7845 30.9925H24.1983C22.2518 30.9925 20.6683 29.6185 20.6683 27.9297C20.6683 27.2745 20.0562 26.7434 19.3011 26.7434C18.546 26.7434 17.9339 27.2745 17.9339 27.9297C17.9339 28.7158 18.1288 29.4627 18.4764 30.138C17.9154 30.6747 17.1131 30.9926 16.2572 30.9926H13.7614C13.0063 30.9926 12.3942 31.5237 12.3942 32.1789V35.8348C12.3942 38.4279 13.88 40.7241 16.15 42.1211V43.827H14.311C11.3347 43.827 8.91324 41.7259 8.91324 39.1433V32.3941H8.91311ZM15.1285 33.3649H16.2571C17.7126 33.3649 19.0874 32.8846 20.1288 32.0568C21.2245 32.8713 22.6457 33.3649 24.1983 33.3649H27.4173V35.8345C27.4173 38.7742 24.6609 41.1659 21.2729 41.1659C17.8849 41.1659 15.1285 38.7742 15.1285 35.8345V33.3649ZM18.8843 43.2529C19.6448 43.4375 20.4453 43.5384 21.2729 43.5384C22.1004 43.5384 22.9009 43.4376 23.6615 43.2529V45.2166C23.6615 46.3594 22.59 47.2891 21.2729 47.2891C19.9559 47.2891 18.8843 46.3594 18.8843 45.2166V43.2529ZM27.4541 52.8959V58.3648H2.73438V52.8959C2.73438 49.2033 6.19678 46.1991 10.4526 46.1991H16.2777C16.7948 48.1788 18.8374 49.6616 21.273 49.6616C23.7087 49.6616 25.7513 48.1788 26.2683 46.1991H30.8658C28.7707 47.8589 27.4541 50.2464 27.4541 52.8959ZM42.5826 33.3649H45.8016C47.354 33.3649 48.7754 32.8712 49.871 32.0568C50.9126 32.8846 52.2874 33.3649 53.7428 33.3649H54.8714V35.8345C54.8714 38.7742 52.115 41.1659 48.727 41.1659C45.3389 41.1659 42.5826 38.7742 42.5826 35.8345V33.3649ZM48.7271 47.2891C47.41 47.2891 46.3385 46.3594 46.3385 45.2166V43.2529C47.0991 43.4375 47.8996 43.5384 48.7271 43.5384C49.5547 43.5384 50.3552 43.4376 51.1157 43.2529V45.2166C51.1157 46.3594 50.0441 47.2891 48.7271 47.2891ZM53.8501 43.8266V42.1207C56.1202 40.7239 57.6059 38.4276 57.6059 35.8344V32.1786C57.6059 31.5234 56.9938 30.9923 56.2387 30.9923H53.7428C52.8869 30.9923 52.0846 30.6744 51.5236 30.1377C51.8711 29.4623 52.0661 28.7155 52.0661 27.9293C52.0661 27.2741 51.454 26.743 50.6989 26.743C49.9438 26.743 49.3317 27.2741 49.3317 27.9293C49.3317 29.6182 47.7481 30.9922 45.8017 30.9922H41.2155C40.4604 30.9922 39.8483 31.5233 39.8483 32.1784V35.8343C39.8483 38.4274 41.334 40.7237 43.6041 42.1205V43.8264H36.3672V32.3937C36.3672 26.4803 41.9118 21.6693 48.7271 21.6693C55.5424 21.6693 61.0869 26.4803 61.0869 32.3937V43.8264H53.8501V43.8266Z" fill="#219EBC"/>
<path d="M48.7266 58.365C48.367 58.365 48.0143 58.4919 47.76 58.7125C47.5057 58.9332 47.3594 59.2392 47.3594 59.5511C47.3594 59.8631 47.5057 60.1691 47.76 60.3898C48.0143 60.6104 48.367 60.7373 48.7266 60.7373C49.0875 60.7373 49.4389 60.6104 49.6932 60.3898C49.9488 60.1691 50.0938 59.8631 50.0938 59.5511C50.0938 59.2392 49.9488 58.9332 49.6932 58.7125C49.4389 58.4919 49.0875 58.365 48.7266 58.365Z" fill="#219EBC"/>
</svg>
