<svg width="30" height="30" viewBox="0 0 30 30" fill="none" xmlns="http://www.w3.org/2000/svg">
<path d="M20.7125 27.5001C21.0445 27.502 21.3736 27.4377 21.6805 27.3111C21.9874 27.1845 22.266 26.998 22.5 26.7626L25.8875 23.3751C26.1203 23.1409 26.251 22.824 26.251 22.4938C26.251 22.1636 26.1203 21.8468 25.8875 21.6126L20.8875 16.6126C20.6533 16.3797 20.3365 16.2491 20.0063 16.2491C19.6761 16.2491 19.3592 16.3797 19.125 16.6126L17.125 18.6001C15.7404 18.2309 14.4579 17.5512 13.375 16.6126C12.4389 15.5279 11.7596 14.2461 11.3875 12.8626L13.375 10.8626C13.6079 10.6284 13.7385 10.3115 13.7385 9.98131C13.7385 9.65107 13.6079 9.33426 13.375 9.10006L8.37504 4.10005C8.14084 3.86724 7.82402 3.73656 7.49379 3.73656C7.16356 3.73656 6.84674 3.86724 6.61254 4.10005L3.23754 7.50006C3.00208 7.73411 2.8156 8.01271 2.68897 8.31962C2.56235 8.62652 2.49812 8.95556 2.50004 9.28756C2.61345 14.0904 4.53263 18.6742 7.87504 22.1251C11.3259 25.4675 15.9097 27.3867 20.7125 27.5001ZM7.50004 6.76256L10.7375 10.0001L9.12504 11.6126C8.97232 11.7556 8.85795 11.9347 8.79243 12.1335C8.72691 12.3322 8.71234 12.5442 8.75004 12.7501C9.21725 14.838 10.2064 16.7734 11.625 18.3751C13.2255 19.7955 15.1613 20.7849 17.25 21.2501C17.4528 21.2924 17.6628 21.2838 17.8614 21.2249C18.0599 21.166 18.2407 21.0586 18.3875 20.9126L20 19.2626L23.2375 22.5001L20.7375 25.0001C16.5922 24.8933 12.6369 23.239 9.65004 20.3626C6.76618 17.3744 5.10705 13.4139 5.00004 9.26256L7.50004 6.76256ZM25 13.7501H27.5C27.5325 12.2638 27.2636 10.7864 26.7097 9.40681C26.1558 8.02725 25.3284 6.77411 24.2772 5.72292C23.226 4.67174 21.9728 3.84426 20.5933 3.29037C19.2137 2.73648 17.7363 2.46764 16.25 2.50005V5.00006C17.4099 4.95993 18.5657 5.15882 19.6454 5.58435C20.7252 6.00988 21.7058 6.65296 22.5265 7.47361C23.3471 8.29426 23.9902 9.27494 24.4157 10.3547C24.8413 11.4344 25.0402 12.5902 25 13.7501Z" fill="white"/>
<path d="M16.25 10C18.875 10 20 11.125 20 13.75H22.5C22.5 9.725 20.275 7.5 16.25 7.5V10Z" fill="white"/>
</svg>
