<svg width="30" height="30" viewBox="0 0 30 30" fill="none" xmlns="http://www.w3.org/2000/svg">
<path fill-rule="evenodd" clip-rule="evenodd" d="M23.5267 17.49C23.1733 17.3452 22.795 17.2707 22.413 17.2706C22.056 17.2503 21.6993 17.3152 21.3724 17.46C21.0895 17.5965 20.8196 17.7584 20.5661 17.9437C20.3194 18.1228 20.0936 18.3291 19.893 18.5588C19.698 18.7837 19.5086 18.99 19.323 19.1756C19.1545 19.3461 18.9726 19.5028 18.7792 19.6444C18.584 19.7843 18.3449 19.8493 18.1057 19.8276C17.8665 19.8059 17.643 19.699 17.4761 19.5262C17.2698 19.3327 17.0647 19.1377 16.8611 18.9412C16.5986 18.6863 16.2761 18.3787 15.8955 18.0169C15.4972 17.6391 15.1015 17.2584 14.7086 16.875L13.4336 15.63C12.6508 14.8646 11.8941 14.0729 11.1649 13.2563C10.903 12.9683 10.6582 12.6653 10.4317 12.3488C10.2555 12.0956 10.1674 11.91 10.1674 11.7919C10.1565 11.5802 10.2239 11.372 10.3567 11.2069C10.4936 11.0306 10.6567 10.8506 10.8405 10.6631C11.028 10.4794 11.2324 10.2825 11.4555 10.0781C11.6805 9.87187 11.8867 9.6525 12.0724 9.41812C12.2561 9.18375 12.4136 8.91563 12.5411 8.61188C12.6667 8.31187 12.7305 7.96875 12.7305 7.58812C12.7305 6.8144 12.4253 6.07192 11.8811 5.52187C11.5308 5.17801 11.1985 4.81627 10.8855 4.43813C10.5278 4.01214 10.1412 3.6112 9.72862 3.23812C9.32808 2.87157 8.89076 2.54735 8.42362 2.27062C7.99936 2.0138 7.5133 1.87706 7.01737 1.875C6.2443 1.87551 5.50258 2.18069 4.953 2.72437C4.44487 3.2325 4.0005 3.68625 3.61987 4.0875C3.25459 4.46741 2.9303 4.88471 2.65237 5.3325C2.38302 5.77682 2.18559 6.26092 2.06737 6.76687C1.92974 7.39227 1.86555 8.0316 1.87612 8.67188C1.87612 9.70687 2.043 10.7812 2.37487 11.895C2.70675 13.0069 3.15487 14.1169 3.72112 15.2194C4.28737 16.3237 4.97737 17.4075 5.78737 18.4725C6.59737 19.5356 7.47675 20.5462 8.42362 21.5044C9.3705 22.4606 10.3774 23.3456 11.4424 24.1556C12.5055 24.9656 13.5949 25.665 14.7086 26.25C15.8205 26.8369 16.9399 27.2944 18.063 27.6263C19.127 27.9497 20.2322 28.1177 21.3442 28.125C21.9798 28.1247 22.6135 28.0555 23.2342 27.9188C23.7458 27.8033 24.2353 27.6057 24.6836 27.3337C25.1149 27.0713 25.5274 26.7487 25.9286 26.3681C26.3299 25.9856 26.778 25.5469 27.2767 25.0481C27.8207 24.498 28.1259 23.7556 28.1261 22.9819C28.1049 22.653 28.0406 22.3284 27.9349 22.0162C27.8252 21.6893 27.6624 21.3827 27.453 21.1088C27.2342 20.8216 27.004 20.5432 26.763 20.2744C26.5147 19.9962 26.2512 19.7321 25.9736 19.4831C25.7056 19.2429 25.4369 19.0035 25.1674 18.765C24.9315 18.557 24.702 18.3419 24.4792 18.12C24.2076 17.8477 23.8836 17.6334 23.5267 17.49ZM22.8386 26.0887C22.3495 26.2063 21.8472 26.2605 21.3442 26.25C20.3803 26.2317 19.4235 26.079 18.5017 25.7963C17.4703 25.4845 16.4738 25.0673 15.528 24.5513C13.4251 23.3998 11.5007 21.949 9.81487 20.2444C8.95799 19.3778 8.15106 18.4632 7.398 17.505C6.66688 16.5786 6.02053 15.5884 5.46675 14.5462C4.9506 13.5826 4.52804 12.5718 4.20487 11.5275C3.91124 10.589 3.75833 9.61211 3.75112 8.62875C3.75065 8.12974 3.80982 7.63246 3.92737 7.1475C4.03425 6.73875 4.1955 6.37125 4.41112 6.05062C4.62487 5.72813 4.88925 5.415 5.2005 5.11313C5.51362 4.80938 5.86987 4.45688 6.26925 4.0575C6.36647 3.95753 6.48323 3.87864 6.61226 3.82574C6.74129 3.77283 6.87983 3.74705 7.01925 3.75C7.1355 3.74063 7.3155 3.8175 7.55925 3.98438C7.803 4.15125 8.06737 4.35 8.3505 4.58437C8.96194 5.0944 9.5261 5.65856 10.0361 6.27C10.2705 6.55125 10.4655 6.81187 10.6211 7.04625C10.7767 7.28062 10.8555 7.46062 10.8555 7.58812C10.8723 7.80051 10.8042 8.0109 10.6661 8.17313C10.5292 8.33063 10.3661 8.51063 10.1824 8.71688C9.99487 8.92125 9.7905 9.11625 9.56737 9.30188C9.34237 9.4875 9.13612 9.70687 8.9505 9.96C8.76417 10.2155 8.60695 10.4909 8.48175 10.7812C8.34963 11.1021 8.28516 11.4468 8.29237 11.7937C8.30175 12.1931 8.3805 12.5681 8.52675 12.9187C8.673 13.2712 8.883 13.5844 9.15675 13.8562L16.143 20.8444C16.4118 21.1196 16.7333 21.3378 17.0883 21.486C17.4433 21.6342 17.8246 21.7093 18.2092 21.7069C18.5611 21.7255 18.9124 21.6613 19.2349 21.5194C19.7981 21.2584 20.3017 20.8844 20.7142 20.4206C20.9205 20.1956 21.108 19.9894 21.2861 19.8038C21.4605 19.62 21.6424 19.4625 21.828 19.335C21.9989 19.2133 22.2032 19.1472 22.413 19.1456C22.5499 19.1456 22.7355 19.2244 22.9699 19.38C23.2042 19.5356 23.463 19.7362 23.7461 19.98C24.0292 20.2238 24.3217 20.4938 24.6255 20.7863C24.9274 21.0788 25.1974 21.3713 25.4317 21.6656C25.6642 21.9581 25.8611 22.2225 26.0167 22.4569C26.1724 22.6912 26.2511 22.8694 26.2511 22.9987C26.2525 23.1352 26.2259 23.2704 26.173 23.3962C26.1201 23.522 26.0421 23.6356 25.9436 23.73C25.5236 24.1406 25.1674 24.4987 24.8749 24.7987C24.5906 25.0942 24.2764 25.3594 23.9374 25.59C23.6016 25.8166 23.2302 25.9852 22.8386 26.0887ZM28.1261 3.195L19.4261 11.91H25.5911V13.785H16.2161V4.41H18.0911V10.575L26.808 1.875L28.1261 3.19312V3.195Z" fill="white"/>
</svg>
