<svg width="71" height="61" viewBox="0 0 71 61" fill="none" xmlns="http://www.w3.org/2000/svg">
<path d="M1.71951 37.854C2.10318 38.0857 2.50867 38.2888 2.93168 38.4614C3.43568 38.6851 4.28034 39.0597 4.33984 39.3218C4.41324 39.6679 4.36529 40.0251 4.20218 40.3473C4.02834 40.6712 3.84634 40.9496 3.68884 41.1895C3.26184 41.8445 2.54668 42.9418 3.62468 43.7061C3.87668 43.9086 4.31184 44.2011 4.70851 44.4653C4.4165 44.9083 4.28442 45.4172 4.32934 45.9261C4.39102 46.3266 4.64157 46.687 5.02118 46.9211C5.28018 47.0801 5.55668 47.2177 5.82968 47.3524C6.51918 47.6935 6.78868 47.8524 6.87968 48.1693C6.9445 48.5767 6.90466 48.9915 6.76301 49.384C6.69418 49.6543 6.62768 49.9256 6.58801 50.1939C6.47216 51.1164 6.60352 52.0497 6.97184 52.921C7.4965 54.529 9.17256 55.6495 11.0983 55.6795C11.4199 55.6787 11.7404 55.6492 12.055 55.5914C15.3879 54.9059 18.6722 54.0532 21.8912 53.0374C24.5197 54.3757 26.1798 58.4451 26.6127 59.9726C26.7419 60.4242 27.2093 60.7412 27.7455 60.741L57.0288 60.6701C57.3999 60.6695 57.7486 60.5157 57.9678 60.2559C58.1871 59.9961 58.2508 59.6613 58.1395 59.3541C57.851 58.6682 57.4532 58.0208 56.9577 57.4308C56.6779 57.0808 56.4257 56.7149 56.2028 56.3355C55.6748 55.4083 55.2343 54.4455 54.8857 53.4565C54.2285 51.5215 53.7701 49.5398 53.516 47.5346C53.4778 47.1666 53.2115 46.8459 52.8213 46.6979C52.4311 46.5499 51.979 46.5982 51.6417 46.8238C51.3045 47.0494 51.1357 47.4165 51.2013 47.7816C51.4711 49.9069 51.958 52.0072 52.6562 54.0578C53.0401 55.146 53.5242 56.2055 54.104 57.2263C54.3702 57.6847 54.6723 58.1268 55.0082 58.5494L55.0863 58.6506L28.6275 58.7164C27.853 56.315 26.4473 54.1022 24.5208 52.2519L25.5708 51.933C26.3525 51.6961 26.9417 51.518 27.2438 51.4339C32.2418 50.0623 34.7408 48.0873 34.6732 45.5626C34.6741 45.2929 34.5477 45.0346 34.3232 44.8479C34.0988 44.6612 33.7961 44.5625 33.4855 44.5746C32.8416 44.5879 32.3318 45.0515 32.3468 45.6102C32.3748 46.6519 31.3913 48.1713 26.5415 49.5025C26.2253 49.5906 25.6163 49.7748 24.8078 50.0198C23.941 50.283 22.8385 50.617 21.6228 50.9754H21.6147C18.3314 52.0196 14.9814 52.8984 11.5813 53.6073C10.4934 53.7893 9.43387 53.1938 9.18034 52.2579C8.9311 51.6821 8.83731 51.0643 8.90618 50.452C8.93651 50.2394 8.99251 50.0289 9.04618 49.8173C9.2839 49.1171 9.31877 48.3768 9.14768 47.6621C8.8072 46.7336 8.01942 45.9788 6.98818 45.593L6.74551 45.4725C6.87148 45.2519 7.02191 45.0423 7.19468 44.8469C7.39039 44.6318 7.47718 44.3569 7.43518 44.0852C7.39318 43.8135 7.22599 43.5683 6.97184 43.4054C6.69184 43.2273 6.03151 42.7981 5.54851 42.46C5.60451 42.3719 5.66518 42.2747 5.72351 42.1866C5.90668 41.9083 6.11551 41.5843 6.31968 41.2098C6.68886 40.5002 6.79761 39.7093 6.63118 38.9443C6.35118 37.7093 4.98851 37.1039 3.99334 36.6625C3.6587 36.5251 3.33791 36.3636 3.03434 36.1797C2.78418 36.0338 2.54987 35.8685 2.33434 35.6857C2.33434 35.5328 2.52334 35.1623 3.41234 34.2219C5.50166 31.889 7.29215 29.3656 8.75218 26.6965C9.02764 26.2782 9.18253 25.8083 9.20368 25.3269C9.08317 24.3094 8.46173 23.3867 7.49918 22.7961C7.02668 22.4206 6.58218 22.0663 6.53084 21.7393C6.53864 21.4994 6.60047 21.2632 6.71284 21.0439C6.90301 20.6096 7.12234 20.1844 7.34284 19.7583C7.82123 18.9024 8.20334 18.0084 8.48384 17.0888L8.60051 16.6576C8.84792 15.6455 9.16663 14.6475 9.55484 13.6693C10.4745 11.4668 11.8984 9.44862 13.7408 7.73625C15.9727 5.68737 19.4855 4.23777 24.1988 3.42489C27.8041 2.73815 31.4624 2.28073 35.1445 2.05627C36.9809 1.97 38.8226 2.06065 40.636 2.32655C41.2628 2.40808 41.85 2.04045 41.9584 1.49859C42.0668 0.956737 41.6568 0.4389 41.035 0.332336C39.05 0.0396308 37.0336 -0.0601903 35.0232 0.0347214C31.2269 0.263185 27.4551 0.732797 23.738 1.43979C18.4775 2.35085 14.6543 3.95129 12.0445 6.34435C9.98582 8.25573 8.39406 10.5087 7.36501 12.9678C6.94486 14.0259 6.59966 15.1054 6.33134 16.2L6.21468 16.6272C5.96568 17.4212 5.63172 18.1932 5.21718 18.9332C4.98384 19.3948 4.74118 19.8564 4.53234 20.3342C4.26374 20.8665 4.15728 21.4496 4.22318 22.0278C4.4586 22.9342 5.06247 23.7367 5.92418 24.2883C6.49468 24.7428 6.86918 25.0627 6.87384 25.3411C6.83161 25.4953 6.76445 25.6435 6.67434 25.7814C5.27668 28.3364 3.56329 30.752 1.56434 32.9859C0.720845 33.8777 -0.162321 34.9174 0.025512 35.957C0.272622 36.7615 0.883394 37.4455 1.71951 37.854Z" fill="#219EBC"/>
<path d="M13.0305 18.0153L13.1471 17.5648C13.3516 16.7232 13.6114 15.8924 13.9253 15.0766C14.6279 13.3865 15.7168 11.8371 17.1266 10.5212C18.6386 9.28419 20.4894 8.40233 22.5038 7.95908C22.9105 7.85964 23.2234 7.57714 23.3219 7.22059C23.4203 6.86403 23.2889 6.48915 22.9783 6.24059C22.6676 5.99202 22.2264 5.90861 21.8248 6.02255C19.4207 6.56464 17.2184 7.63536 15.4303 9.13133C13.8056 10.6468 12.5505 12.4314 11.7402 14.3781C11.3901 15.2766 11.1014 16.1923 10.8757 17.1204L10.759 17.5587C10.6134 18.1029 11.0034 18.6466 11.6305 18.7735C11.7173 18.7912 11.8062 18.8 11.8953 18.7998C12.4379 18.7992 12.9084 18.474 13.0305 18.0153Z" fill="#219EBC"/>
<path d="M10.5021 22.2737C11.1464 22.2737 11.6688 21.8204 11.6688 21.2614C11.6688 20.7023 11.1464 20.249 10.5021 20.249C9.85778 20.249 9.33545 20.7023 9.33545 21.2614C9.33545 21.8204 9.85778 22.2737 10.5021 22.2737Z" fill="#219EBC"/>
<path d="M31.5023 20.4619C31.4223 23.913 32.8279 27.266 35.4444 29.866C36.268 30.6085 37.166 31.286 38.1277 31.8906C39.8346 33.0355 41.4516 34.1298 41.8809 35.6523C40.548 36.11 39.6715 37.2267 39.6689 38.4705V40.4951C39.675 41.7774 40.6088 42.9182 42.0022 43.3457V43.5319C42.0022 45.7682 44.0916 47.5811 46.6689 47.5811C49.2462 47.5811 51.3356 45.7682 51.3356 43.5319V43.3457C52.729 42.9182 53.6628 41.7774 53.6689 40.4951V38.4705C53.6655 37.2257 52.787 36.1087 51.4522 35.6523C51.8804 34.1338 53.4986 33.0355 55.2054 31.8906C56.1669 31.2858 57.0649 30.6083 57.8887 29.866C60.5062 27.2662 61.9134 23.9134 61.8356 20.4619C61.803 13.1708 55.0704 7.23466 46.6689 7.0896C38.2675 7.23466 31.5348 13.1708 31.5023 20.4619ZM43.1689 22.2739H42.0022C41.3579 22.2739 40.8356 21.8207 40.8356 21.2616C40.8356 20.7025 41.3579 20.2493 42.0022 20.2493C42.6466 20.2493 43.1689 20.7025 43.1689 21.2616V22.2739ZM47.8356 35.4336H45.5022V24.2985H47.8356V35.4336ZM46.6689 45.5565C45.3802 45.5565 44.3356 44.6501 44.3356 43.5319H49.0022C49.0022 44.6501 47.9576 45.5565 46.6689 45.5565ZM51.3356 40.4951C51.3356 41.0541 50.8132 41.5073 50.1689 41.5073H43.1689C42.5246 41.5073 42.0022 41.0541 42.0022 40.4951V38.4705C42.0022 37.9114 42.5246 37.4582 43.1689 37.4582H50.1689C50.8132 37.4582 51.3356 37.9114 51.3356 38.4705V40.4951ZM59.5022 20.4933C59.5748 23.4326 58.3842 26.2901 56.1621 28.5096C55.4303 29.1606 54.6352 29.7557 53.7856 30.2882C52.41 31.1197 51.1901 32.1299 50.1689 33.2835V24.2985H51.3356C53.2686 24.2985 54.8356 22.9388 54.8356 21.2616C54.8356 19.5844 53.2686 18.2248 51.3356 18.2248C49.4026 18.2248 47.8356 19.5844 47.8356 21.2616V22.2739H45.5022V21.2616C45.5022 19.5844 43.9352 18.2248 42.0022 18.2248C40.0692 18.2248 38.5022 19.5844 38.5022 21.2616C38.5022 22.9388 40.0692 24.2985 42.0022 24.2985H43.1689V33.2835C42.1496 32.1305 40.9317 31.1205 39.5581 30.2892C38.7081 29.7563 37.9126 29.1609 37.1804 28.5096C34.956 26.291 33.7636 23.4332 33.8356 20.4933C33.9523 14.3244 39.8229 9.11417 46.6689 9.11417C53.5149 9.11417 59.3914 14.3244 59.5022 20.4933ZM50.1689 22.2739V21.2616C50.1689 20.7025 50.6912 20.2493 51.3356 20.2493C51.9799 20.2493 52.5022 20.7025 52.5022 21.2616C52.5022 21.8207 51.9799 22.2739 51.3356 22.2739H50.1689Z" fill="#219EBC"/>
<path d="M65.3356 21.2615H68.8356C69.48 21.2615 70.0023 20.8082 70.0023 20.2491C70.0023 19.6901 69.48 19.2368 68.8356 19.2368H65.3356C64.6913 19.2368 64.1689 19.6901 64.1689 20.2491C64.1689 20.8082 64.6913 21.2615 65.3356 21.2615Z" fill="#219EBC"/>
<path d="M59.8673 9.80957C60.1771 9.80978 60.4743 9.70307 60.6933 9.51296L63.1678 7.36479C63.4711 7.11061 63.5928 6.73423 63.486 6.38028C63.3792 6.02634 63.0607 5.74993 62.6528 5.65729C62.2449 5.56464 61.8111 5.67018 61.5182 5.93335L59.0425 8.0805C58.7081 8.36993 58.6078 8.80575 58.7884 9.18442C58.9691 9.56309 59.395 9.80989 59.8673 9.80957Z" fill="#219EBC"/>
<path d="M46.6686 5.06494C47.313 5.06494 47.8353 4.61172 47.8353 4.05264V1.01572C47.8353 0.456642 47.313 0.00341797 46.6686 0.00341797C46.0243 0.00341797 45.502 0.456642 45.502 1.01572V4.05264C45.502 4.61172 46.0243 5.06494 46.6686 5.06494Z" fill="#219EBC"/>
<path d="M34.295 9.51291C34.5141 9.32304 34.6372 9.06538 34.6372 8.7967C34.6372 8.52802 34.5141 8.27036 34.295 8.08048L31.8194 5.93334C31.5264 5.67018 31.0927 5.56464 30.6848 5.65729C30.2769 5.74993 29.9583 6.02634 29.8515 6.38028C29.7448 6.73421 29.8664 7.1106 30.1697 7.36477L32.6442 9.51291C32.863 9.70301 33.16 9.80981 33.4696 9.80981C33.7793 9.80981 34.0762 9.70301 34.295 9.51291Z" fill="#219EBC"/>
<path d="M24.5021 19.2368C23.8578 19.2368 23.3354 19.6901 23.3354 20.2491C23.3354 20.8082 23.8578 21.2615 24.5021 21.2615H28.0021C28.6465 21.2615 29.1688 20.8082 29.1688 20.2491C29.1688 19.6901 28.6465 19.2368 28.0021 19.2368H24.5021Z" fill="#219EBC"/>
</svg>
