<svg width="60" height="60" viewBox="0 0 60 60" fill="none" xmlns="http://www.w3.org/2000/svg">
<path d="M17.6806 24.5325L12.5356 29.6775C10.4256 31.7875 9.24023 34.6492 9.24023 37.6331C9.24023 40.6171 10.4256 43.4788 12.5356 45.5887C14.6455 47.6987 17.5072 48.8841 20.4912 48.8841C23.4751 48.8841 26.3368 47.6987 28.4468 45.5887L35.3018 38.73C36.5742 37.4575 37.5227 35.8983 38.0678 34.1833C38.6129 32.4683 38.7386 30.6476 38.4344 28.874C38.1302 27.1004 37.405 25.4256 36.3197 23.9903C35.2343 22.5549 33.8205 21.4009 32.1968 20.625L29.9993 22.8225C29.7762 23.046 29.5822 23.2967 29.4218 23.5687C30.6763 23.9294 31.8149 24.6112 32.7252 25.5467C33.6354 26.4823 34.2857 27.6392 34.6118 28.9031C34.9379 30.1669 34.9285 31.4941 34.5846 32.7532C34.2406 34.0124 33.574 35.1599 32.6506 36.0825L25.7993 42.9375C24.392 44.3448 22.4833 45.1354 20.4931 45.1354C18.5028 45.1354 16.5941 44.3448 15.1868 42.9375C13.7795 41.5302 12.9889 39.6215 12.9889 37.6312C12.9889 35.641 13.7795 33.7323 15.1868 32.325L18.1606 29.355C17.741 27.7827 17.5789 26.1529 17.6806 24.5287V24.5325Z" fill="#FFB703"/>
<path d="M24.6968 17.52C23.4245 18.7925 22.4759 20.3517 21.9309 22.0667C21.3858 23.7816 21.2601 25.6023 21.5642 27.3759C21.8684 29.1496 22.5936 30.8243 23.679 32.2597C24.7643 33.695 26.1782 34.8491 27.8018 35.625L30.7081 32.715C29.4366 32.3739 28.2773 31.7042 27.3467 30.7732C26.4161 29.8422 25.7469 28.6826 25.4064 27.411C25.0659 26.1394 25.066 24.8006 25.4069 23.5291C25.7477 22.2576 26.4172 21.0982 27.3481 20.1675L34.1993 13.3125C35.6066 11.9052 37.5153 11.1145 39.5056 11.1145C41.4958 11.1145 43.4045 11.9052 44.8118 13.3125C46.2191 14.7198 47.0097 16.6285 47.0097 18.6187C47.0097 20.6089 46.2191 22.5177 44.8118 23.925L41.8381 26.895C42.2581 28.47 42.4193 30.1012 42.3181 31.7212L47.4631 26.5762C49.573 24.4662 50.7584 21.6045 50.7584 18.6206C50.7584 15.6366 49.573 12.7749 47.4631 10.665C45.3531 8.55499 42.4914 7.36963 39.5075 7.36963C36.5235 7.36963 33.6618 8.55499 31.5518 10.665L24.6968 17.52Z" fill="#FFB703"/>
</svg>
