<svg width="17" height="16" viewBox="0 0 17 16" fill="none" xmlns="http://www.w3.org/2000/svg">
<g clip-path="url(#clip0)">
<path d="M16.0149 3.52752C15.4863 3.74301 14.9213 3.88237 14.33 3.93528C14.9488 3.58981 15.4207 3.03101 15.6578 2.36316C15.0765 2.68523 14.4443 2.90524 13.7887 3.01363C13.3644 2.53247 12.7932 2.20485 12.1636 2.08163C11.5341 1.9584 10.8815 2.04647 10.3071 2.33215C9.73273 2.61784 9.26875 3.08516 8.98719 3.66156C8.70563 4.23796 8.62225 4.8912 8.74999 5.51984C7.59456 5.42701 6.47156 5.09227 5.45387 4.53733C4.43618 3.9824 3.54655 3.21968 2.84271 2.29867C2.57989 2.72223 2.4212 3.21769 2.40523 3.74995C2.39057 4.2291 2.4944 4.70446 2.70752 5.13385C2.92064 5.56325 3.23645 5.9334 3.62693 6.21146C3.16526 6.18289 2.71708 6.04446 2.31971 5.80769L2.31858 5.84517C2.29837 6.51721 2.51128 7.17554 2.9212 7.70846C3.33111 8.24139 3.91278 8.61608 4.56751 8.76896C4.13533 8.87211 3.68537 8.87571 3.2516 8.77948C3.4201 9.36331 3.76694 9.87983 4.24358 10.2567C4.72022 10.6336 5.30279 10.8521 5.90974 10.8814C4.85456 11.6598 3.56824 12.0605 2.25771 12.0192C2.02555 12.0123 1.79399 11.9918 1.56424 11.9578C2.86889 12.8531 4.40386 13.3535 5.98549 13.3992C11.3393 13.5599 14.3992 9.21348 14.5146 5.36771C14.5184 5.24277 14.5191 5.11648 14.5172 4.99137C15.0988 4.59675 15.6056 4.10168 16.0136 3.52936L16.0149 3.52752Z" fill="white"/>
</g>
<defs>
<clipPath id="clip0">
<rect width="15" height="15" fill="white" transform="translate(1.33691) rotate(1.71913)"/>
</clipPath>
</defs>
</svg>
