<svg width="29" height="31" viewBox="0 0 29 31" fill="none" xmlns="http://www.w3.org/2000/svg">
<path d="M19.9521 5.89141C21.8376 6.65401 23.4521 7.96271 24.5884 9.64951C25.7247 11.3363 26.3309 13.3242 26.3292 15.3581C26.3309 17.3918 25.7246 19.3796 24.5883 21.0663C23.452 22.753 21.8375 24.0615 19.9521 24.824V26.9535C22.3924 26.1499 24.5165 24.5961 26.0215 22.5139C27.5265 20.4316 28.3355 17.9273 28.3331 15.3581C28.3331 9.94932 24.8214 5.35808 19.9521 3.75579V5.89141ZM19.9521 10.9192C20.5937 11.4672 21.1086 12.148 21.4612 12.9145C21.8138 13.6811 21.9956 14.5151 21.994 15.3588C21.9957 16.2025 21.8139 17.0364 21.4613 17.8029C21.1088 18.5693 20.5938 19.25 19.9521 19.7977V21.9646C22.2302 20.6457 23.7616 18.1809 23.7616 15.3588C23.7622 14.0203 23.4104 12.7052 22.7417 11.5457C22.073 10.3862 21.1109 9.42306 19.9521 8.75313V10.9192ZM2.42829 21.4602H8.52353L15.3807 29.8526C16.1426 30.9497 17.9254 30.8666 18.4283 29.6225V1.15617C17.8104 -0.0872546 16.1891 -0.187064 15.3807 0.865126L8.52353 9.28646H2.42829C0.477054 9.28646 0.142578 9.6377 0.142578 11.5447V19.1729C0.142578 21.0335 0.523531 21.4602 2.42829 21.4602Z" fill="#FFB703"/>
</svg>
