<svg width="50" height="50" viewBox="0 0 50 50" fill="none" xmlns="http://www.w3.org/2000/svg">
<path d="M25.0001 41.6665C29.4204 41.6665 33.6596 39.9106 36.7852 36.785C39.9108 33.6593 41.6668 29.4201 41.6668 24.9998C41.6668 20.5796 39.9108 16.3403 36.7852 13.2147C33.6596 10.0891 29.4204 8.33317 25.0001 8.33317C20.5798 8.33317 16.3406 10.0891 13.215 13.2147C10.0894 16.3403 8.33342 20.5796 8.33342 24.9998C8.33342 29.4201 10.0894 33.6593 13.215 36.785C16.3406 39.9106 20.5798 41.6665 25.0001 41.6665ZM25.0001 45.8332C13.4938 45.8332 4.16675 36.5061 4.16675 24.9998C4.16675 13.4936 13.4938 4.1665 25.0001 4.1665C36.5063 4.1665 45.8334 13.4936 45.8334 24.9998C45.8334 36.5061 36.5063 45.8332 25.0001 45.8332Z" fill="white"/>
<path d="M31.0895 17.7622H18.9103C16.5208 17.7622 14.5833 19.6789 14.5833 22.0414V28.0622C14.5833 30.4268 16.5208 32.3414 18.9103 32.3414H31.0895C33.4791 32.3414 35.4166 30.4247 35.4166 28.0622V22.0414C35.4166 19.6768 33.4791 17.7622 31.0895 17.7622ZM28.1645 25.3455L22.4666 28.033C22.4317 28.0495 22.3933 28.0569 22.3548 28.0546C22.3163 28.0523 22.279 28.0403 22.2464 28.0197C22.2138 27.9991 22.1869 27.9707 22.1682 27.9369C22.1495 27.9032 22.1397 27.8653 22.1395 27.8268V22.2851C22.1398 22.2461 22.1502 22.2078 22.1695 22.1738C22.1888 22.1399 22.2165 22.1114 22.2499 22.0912C22.2832 22.0709 22.3213 22.0596 22.3603 22.0581C22.3993 22.0567 22.4381 22.0653 22.4728 22.083L28.1687 24.9372C28.2061 24.9568 28.2374 24.9863 28.2591 25.0226C28.2809 25.0588 28.2921 25.1004 28.2917 25.1427C28.2913 25.1849 28.2791 25.2262 28.2567 25.262C28.2343 25.2978 28.2023 25.3267 28.1645 25.3455Z" fill="white"/>
</svg>
